<svg xmlns="http://www.w3.org/2000/svg" fill="none" viewBox="0 0 1440 400" height="400" width="1440">
<g clip-path="url(#clip0_2348_31150)">
<rect fill="white" height="400" width="1440"></rect>
<rect fill="#FFE779" height="775" width="1442" y="-97" x="-2" opacity="0.15"></rect>
<path fill="#B8D8C7" d="M1301.71 110.206H1087.46V328.971H1301.71V110.206Z"></path>
<path fill="#6DAFA7" d="M1301.75 87.0563H1202.48V100.379H1301.75V87.0563Z"></path>
<path fill="white" d="M1164.47 141.004H1123.56V175.919H1164.47V141.004Z"></path>
<path fill="white" d="M1269.26 130.207H1181.46V205.124H1269.26V130.207Z"></path>
<path fill="#6DAFA7" d="M1261.2 137.82H1188.88V145.018H1261.2V137.82Z"></path>
<path fill="#6DAFA7" d="M1260.63 152.873H1189.72C1188.96 152.873 1188.96 153.703 1189.72 153.703H1260.63C1261.38 153.703 1261.38 152.873 1260.63 152.873Z"></path>
<path fill="#6DAFA7" d="M1260.63 162.285H1189.72C1188.96 162.285 1188.96 163.115 1189.72 163.115H1260.63C1261.38 163.115 1261.38 162.285 1260.63 162.285Z"></path>
<path fill="#6DAFA7" d="M1260.63 171.697H1189.72C1188.96 171.697 1188.96 172.528 1189.72 172.528H1260.63C1261.38 172.562 1261.38 171.697 1260.63 171.697Z"></path>
<path fill="#6DAFA7" d="M1300.74 129.93H1296.93V197.858H1300.74V129.93Z"></path>
<path fill="white" d="M1234.27 92.5929H1206.57C1206.01 92.5929 1206.01 93.4234 1206.57 93.4234H1234.27C1234.83 93.458 1234.83 92.5929 1234.27 92.5929Z"></path>
<path fill="white" d="M1301.71 115.743V116.573H1101.92C1101.36 116.573 1101.36 115.743 1101.92 115.743H1301.71Z"></path>
<path fill="white" d="M1153.79 136.367H1124.11C1123.56 136.367 1123.56 137.197 1124.11 137.197H1153.79C1154.35 137.197 1154.35 136.367 1153.79 136.367Z"></path>
<path fill="#6DAFA7" d="M276.175 262.147H134V368.367H276.175V262.147Z"></path>
<path fill="white" d="M205.165 276.639H149.456V320.385H205.165V276.639Z"></path>
<path fill="#E26E85" d="M146.107 266.188H139.45V271.899H146.107V266.188Z"></path>
<path fill="#EAF9F3" d="M255.814 318.482C255.697 318.482 255.581 318.443 255.464 318.365L215.793 279.708C215.599 279.514 215.599 279.242 215.793 279.047C215.988 278.853 216.261 278.853 216.455 279.047L256.126 317.704C256.32 317.899 256.32 318.171 256.126 318.365C256.048 318.443 255.931 318.482 255.814 318.482Z"></path>
<path fill="#EAF9F3" d="M216.611 318.948C216.494 318.948 216.377 318.909 216.261 318.831C216.066 318.637 216.066 318.365 216.261 318.171L254.997 278.581C255.191 278.387 255.464 278.387 255.659 278.581C255.853 278.776 255.853 279.048 255.659 279.242L216.922 318.831C216.845 318.909 216.728 318.948 216.611 318.948Z"></path>
<path fill="#22272E" d="M198.742 328H150.156C149.533 328 149.533 328.933 150.156 328.933H198.742C199.365 328.933 199.365 328 198.742 328Z"></path>
<path fill="#22272E" d="M198.742 334.411H150.156C149.533 334.411 149.533 335.343 150.156 335.343H198.742C199.365 335.343 199.365 334.411 198.742 334.411Z"></path>
<path fill="#22272E" d="M188.114 340.821H150.039C149.572 340.821 149.572 341.753 150.039 341.753H188.114C188.62 341.753 188.62 340.821 188.114 340.821Z"></path>
<path fill="#22272E" d="M189.243 286.468C184.61 294.549 179.977 302.669 175.345 310.75C171.451 306.01 167.558 301.27 163.665 296.569C163.276 296.103 162.614 296.764 163.003 297.23C167.052 302.125 171.062 307.02 175.111 311.916C175.306 312.149 175.734 312.071 175.851 311.838C180.6 303.563 185.35 295.248 190.099 286.973C190.372 286.429 189.554 285.924 189.243 286.468Z"></path>
<path fill="black" d="M288.925 163.295L274.561 168.157C274.304 168.244 274.081 168.435 273.97 168.702L263.727 190.79C263.343 191.61 264.132 192.492 264.983 192.204L279.166 187.403C279.424 187.316 279.647 187.125 279.757 186.858L290.207 164.7C290.565 163.889 289.776 163.007 288.925 163.295Z"></path>
<path fill="white" d="M282.197 174.05C283.255 173.692 283.732 172.812 283.719 172.012C283.707 171.212 283.203 170.405 282.238 170.358C281.162 170.321 280.277 170.764 279.799 171.558C279.441 172.196 279.41 172.954 279.732 173.477C280.044 173.975 280.623 174.238 281.328 174.201C281.673 174.199 281.94 174.137 282.197 174.05ZM282.24 170.703C282.998 170.733 283.363 171.386 283.366 171.988C283.371 172.848 282.756 173.746 281.344 173.822C280.75 173.851 280.31 173.655 280.066 173.277C279.806 172.848 279.829 172.237 280.144 171.728C280.52 171.055 281.284 170.681 282.24 170.703Z"></path>
<path fill="white" d="M275.418 168.646C279.562 167.214 283.74 165.799 287.884 164.368C288.09 164.298 288.204 164.633 287.997 164.703C283.854 166.135 279.676 167.549 275.532 168.981C275.334 169.077 275.212 168.716 275.418 168.646Z"></path>
<path fill="#FFA79B" d="M207.096 195.617C211.463 194.127 225.977 186.049 225.977 186.049L229.165 191.469C234.108 190.209 253.211 188.591 261.136 188.264C262.313 185.648 262.351 184.048 264.754 182.227C267.26 180.313 266.654 179.659 268.815 177.318C269.895 176.147 271.922 177.608 271.078 179.019C269.694 181.284 268.616 186.43 269.984 186.448C271.315 186.456 274.258 187.916 276.134 186.594C277.406 184.301 279.615 180.7 281.347 179.241C281.982 178.711 283.316 178.938 283.44 179.686C283.464 179.672 283.501 179.682 283.524 179.668C284.22 179.67 285.256 180.356 284.889 181.613C285.917 181.641 286.433 182.411 286.377 183.391C288.394 183.974 286.529 189.394 284.314 192.019C271.888 204.774 233.187 209.531 223.353 213.377C213.459 217.228 213.807 211.752 207.096 195.617Z"></path>
<path fill="black" d="M224.816 192.67L228.392 191.233C228.594 191.147 228.703 191.493 228.501 191.58C227.301 192.063 226.125 192.533 224.925 193.016C224.686 193.093 224.6 192.733 224.816 192.67Z"></path>
<path fill="black" d="M282.018 191.436C284.053 189.42 285.356 186.857 285.774 184.023C285.809 183.813 286.15 183.803 286.129 184.036C285.692 186.944 284.36 189.619 282.267 191.7C282.107 191.857 281.857 191.593 282.018 191.436Z"></path>
<path fill="black" d="M277.4 188.687C280.151 186.599 282.074 183.64 282.908 180.278C282.966 180.055 283.302 180.142 283.243 180.365C282.391 183.801 280.411 186.826 277.58 188.992C277.406 189.126 277.226 188.821 277.4 188.687Z"></path>
<path fill="black" d="M279.81 190.207C282.049 187.946 283.62 185.194 284.4 182.116C284.458 181.893 284.793 181.98 284.735 182.203C283.96 185.342 282.346 188.182 280.06 190.471C279.924 190.614 279.65 190.365 279.81 190.207Z"></path>
<path fill="#E26E85" d="M207.852 212.34L223.736 155.772L210.85 146.137C190.1 157.987 182.158 161.794 164.678 199.791C162.887 203.637 161.291 207.367 159.811 210.941C175.851 211.407 191.851 211.835 207.852 212.34Z"></path>
<path fill="#FFA79B" d="M329.666 313.742C314.795 312.693 313.51 314.286 307.554 282.311C306.853 278.62 306.269 274.968 305.763 271.471C305.218 271.782 304.634 272.093 304.089 272.404C298.989 275.24 293.655 277.726 288.244 279.941C284.818 281.34 281.353 282.661 277.927 284.137C282.443 294.782 289.762 309.818 301.714 330.487L339.866 322.677C339.866 322.677 340.917 314.557 329.666 313.742Z"></path>
<path fill="#22272E" d="M329.666 313.742C322.153 313.198 318.104 313.353 315.145 309.468C313.043 310.167 311.33 311.838 309.539 313.236C307.631 314.713 305.685 316.15 303.583 317.394C301.208 318.792 298.716 319.919 296.108 320.696C297.821 323.804 299.69 327.068 301.675 330.486L339.827 322.677C339.866 322.677 340.917 314.557 329.666 313.742Z"></path>
<path fill="#FFA79B" d="M294.239 338.606C280.575 330.991 278.667 331.963 287.271 298.978C288.244 295.17 289.334 291.48 290.424 287.905C289.762 287.944 289.061 288.022 288.4 288.061C282.288 288.488 276.136 288.488 270.024 288.177C266.131 287.983 262.277 287.672 258.384 287.556C257.917 299.638 258.189 317.16 260.292 342.025L300.001 351.544C299.962 351.583 304.556 344.356 294.239 338.606Z"></path>
<path fill="#FFE779" d="M258.189 293.306C259.669 293.461 261.109 293.655 262.589 293.85C268.117 294.627 273.684 295.093 279.251 295.52C282.171 295.753 288.439 295.287 291.358 295.481C299.962 263.973 309.344 241.672 284.701 233.358C259.318 224.811 206.256 217.818 206.256 217.818L207.579 213.117C192.046 211.33 176.513 209.426 160.94 208.183C146.886 241.362 145.835 262.264 164.016 263.157C183.715 264.09 261.498 263.157 261.498 263.157C261.498 263.157 258.579 270.073 258.189 293.306Z"></path>
<path fill="#22272E" d="M294.239 338.606C287.349 334.76 283.417 333.089 282.365 328.117C280.068 327.845 277.694 328.66 275.397 329.204C272.944 329.787 270.453 330.253 267.922 330.486C265.041 330.758 262.199 330.72 259.357 330.292C259.63 334.022 259.902 337.946 260.253 342.064L299.962 351.583C299.962 351.583 304.556 344.356 294.239 338.606Z"></path>
<path fill="#FFE779" d="M298.054 245.052C298.054 245.052 305.451 261.681 308.527 273.336C308.527 273.336 287.582 287.595 280.886 290.431C274.229 293.306 298.054 245.052 298.054 245.052Z"></path>
<path fill="#22272E" d="M287.232 297.463C286.881 298.395 286.57 299.367 286.22 300.299C286.103 300.571 286.57 300.726 286.687 300.416C287.037 299.483 287.349 298.512 287.699 297.579C287.816 297.307 287.349 297.191 287.232 297.463Z"></path>
<path fill="black" d="M201.896 222.014C200.455 221.547 199.015 221.081 197.613 220.615C197.302 220.537 197.185 220.965 197.496 221.081L201.779 222.48C202.051 222.558 202.168 222.13 201.896 222.014Z"></path>
<path fill="white" d="M299.417 253.328C298.132 261.098 296.809 268.83 295.524 276.6C295.485 276.911 295.913 277.027 295.991 276.716C297.276 268.946 298.6 261.215 299.884 253.444C299.923 253.172 299.456 253.017 299.417 253.328Z"></path>
<path fill="white" d="M263.64 261.72C263.173 262.031 262.705 262.341 262.199 262.652C261.927 262.808 262.199 263.235 262.433 263.08C262.9 262.769 263.367 262.458 263.873 262.147C264.107 261.953 263.873 261.564 263.64 261.72Z"></path>
<path fill="#FFA79B" d="M232.729 146.021C232.184 146.215 219.843 162.183 219.843 162.183L210.85 146.176L224.982 137.318L232.729 146.021Z"></path>
<path fill="black" d="M228.485 151.11C230.704 148.313 232.495 146.098 232.729 146.021L229.108 141.902C227.979 144.894 227.785 148.08 228.485 151.11Z"></path>
<path fill="#FFA79B" d="M288.594 252.706C286.375 252.085 284.662 251.113 282.91 249.87C282.521 249.482 277.733 247.617 277.343 247.189C278.278 245.48 283.3 247.228 285.052 247.772C286.414 248.161 289.178 247.228 286.881 245.169C284.896 243.421 276.098 238.37 275.358 238.448C272.866 237.36 270.024 237.127 267.299 237.36C252.389 223.14 232.651 209.504 226.928 202.666C226.928 202.666 226.85 194.313 226.656 186.037C226.578 182.696 226.422 178.733 226.266 174.11C225.643 158.026 224.086 149.051 214.782 145.632C214.782 145.632 199.599 157.404 199.287 171.934C198.976 186.465 193.603 213.894 203.92 223.917C214.276 233.98 249.741 249.754 258.228 253.444C260.019 255.115 263.873 257.368 265.041 258.417C268.311 262.069 273.684 264.401 278.784 264.09C279.718 264.051 280.341 263.546 280.691 262.924C280.847 262.613 281.197 262.497 281.548 262.536C282.054 262.613 282.56 262.691 283.066 262.73C284.351 262.846 285.091 262.031 285.246 261.059C285.324 260.632 285.713 260.282 286.142 260.321C286.142 260.321 286.142 260.321 286.181 260.321C288.205 260.477 288.867 258.34 288.127 256.941C288.205 256.941 288.244 256.941 288.322 256.941C292.098 257.019 291.358 253.483 288.594 252.706Z"></path>
<path fill="#E26E85" d="M205.789 188.64C211.706 188.213 217.585 187.436 223.463 186.542C224.514 186.387 225.604 186.193 226.655 186.037C226.578 182.696 226.422 178.733 226.266 174.11C225.643 158.026 224.086 149.051 214.782 145.632C214.782 145.632 199.599 157.404 199.287 171.934C199.17 176.674 198.548 182.813 198.08 189.262C200.611 189.029 203.18 188.835 205.789 188.64Z"></path>
<path fill="#22272E" d="M279.796 261.836C276.604 261.487 273.645 260.243 271.192 258.184C270.959 257.99 270.608 258.34 270.842 258.534C273.411 260.671 276.448 261.992 279.796 262.341C280.107 262.341 280.107 261.836 279.796 261.836Z"></path>
<path fill="#22272E" d="M284.234 258.884C281.197 258.65 278.356 257.524 275.981 255.62C275.747 255.426 275.397 255.775 275.63 255.97C278.122 257.99 281.042 259.156 284.234 259.389C284.546 259.389 284.546 258.884 284.234 258.884Z"></path>
<path fill="#22272E" d="M286.336 255.853C283.611 254.338 280.847 252.862 278.122 251.346C277.849 251.191 277.616 251.618 277.888 251.774C280.614 253.289 283.378 254.765 286.103 256.28C286.336 256.436 286.57 256.008 286.336 255.853Z"></path>
<path fill="#22272E" d="M226.539 202.821C225.916 202.2 225.254 201.539 224.631 200.917C224.398 200.684 224.086 201.034 224.281 201.267C224.904 201.889 225.565 202.549 226.188 203.171C226.422 203.365 226.733 203.015 226.539 202.821Z"></path>
<path fill="white" d="M253.323 225.122C250.52 222.713 247.678 220.304 244.875 217.857C244.642 217.662 244.291 218.012 244.525 218.206C247.328 220.615 250.17 223.024 252.973 225.471C253.206 225.666 253.557 225.316 253.323 225.122Z"></path>
<path fill="#FFA79B" d="M230.665 120.884C234.442 118.164 242.5 120.923 246.354 124.924C248.028 126.673 249.936 125.973 249.313 127.877C247.795 132.578 242.461 148.274 239.386 149.906C233.196 153.169 227.123 147.769 225.877 141.786C224.67 135.841 225.293 124.769 230.665 120.884Z"></path>
<path fill="#896068" d="M250.909 124.225C249.235 122.282 245.187 121.933 243.084 122.36C238.997 119.874 233.546 118.747 230.665 120.845C227.084 123.448 225.604 129.237 225.371 134.598C227.317 134.598 228.485 133.316 230.549 132.384C236.544 132.617 241.06 129.159 242.267 127.1C243.24 128.576 247.912 129.586 249.702 128.421C252.116 126.673 251.415 124.847 250.909 124.225Z"></path>
<path fill="black" d="M238.257 133.549C238.023 133.899 237.751 134.287 237.517 134.637C237.245 134.987 237.867 135.336 238.14 134.987C238.374 134.637 238.646 134.249 238.88 133.899C239.152 133.51 238.529 133.161 238.257 133.549Z"></path>
<path fill="black" d="M245.07 135.259C244.836 135.608 244.564 135.997 244.33 136.347C244.058 136.696 244.68 137.046 244.953 136.696C245.187 136.347 245.459 135.958 245.693 135.608C245.965 135.22 245.342 134.87 245.07 135.259Z"></path>
<path fill="#22272E" d="M242.734 139.105C242.5 138.911 242.189 139.26 242.423 139.455C242.929 139.882 242.423 140.504 241.916 140.62C241.41 140.737 240.865 140.542 240.398 140.348C240.126 140.232 239.892 140.659 240.203 140.775C240.982 141.086 241.955 141.397 242.695 140.775C243.201 140.348 243.24 139.532 242.734 139.105Z"></path>
<path fill="#896068" d="M240.048 132.034C239.581 131.917 239.074 131.801 238.607 131.684C238.023 131.529 237.829 132.461 238.413 132.617C238.88 132.733 239.386 132.85 239.853 132.966C240.476 133.083 240.671 132.151 240.048 132.034Z"></path>
<path fill="#896068" d="M246.432 133.005C246.16 132.889 245.887 132.772 245.576 132.617C245.031 132.384 244.603 133.238 245.148 133.472C245.42 133.588 245.693 133.705 246.004 133.86C246.588 134.093 247.016 133.238 246.432 133.005Z"></path>
<path fill="#22272E" d="M237.556 145.127C236.972 144.972 236.583 144.467 236.544 143.884C236.505 143.573 236.038 143.612 236.077 143.923C236.155 144.739 236.7 145.36 237.478 145.593C237.79 145.671 237.868 145.205 237.556 145.127Z"></path>
<path fill="#896068" d="M229.147 132.151C229.069 131.995 228.914 131.918 228.797 131.918C228.836 131.684 228.68 131.412 228.33 131.412C224.943 131.568 222.101 133.588 220.855 136.657C214.392 129.975 203.336 130.053 197.302 137.396C196.445 138.445 195.978 138.522 194.655 138.639C193.759 138.717 192.864 138.988 192.007 139.338C190.294 140.076 188.815 141.358 187.881 142.99C186.012 146.293 186.829 150.411 189.321 153.092C185.895 154.296 183.053 157.171 183.442 161.056C183.91 165.602 188.192 166.923 192.124 166.728C196.601 166.495 201.623 165.64 205.283 162.843C208.475 160.396 210.344 156.238 209.176 152.314C217.468 156.355 221.517 144.544 222.062 143.495C228.096 143.029 227.084 138.406 227.862 137.24C229.614 134.87 230.432 134.754 229.147 132.151Z"></path>
<path fill="#FFA79B" d="M223.969 132.733C223.113 135.064 225.137 138.483 228.563 138.639C230.354 136.619 232.184 134.676 234.052 132.733C233.391 131.296 231.171 129.276 228.991 129.159C226.539 129.043 224.865 130.208 223.969 132.733Z"></path>
<path fill="#22272E" d="M229.03 133.044C229.381 133.899 229.731 134.754 230.081 135.647C230.198 135.919 229.77 136.075 229.614 135.803C229.575 135.764 229.575 135.686 229.536 135.647C229.536 135.608 229.536 135.608 229.536 135.57C229.225 134.792 228.875 134.015 228.563 133.2C228.485 132.889 228.914 132.733 229.03 133.044Z"></path>
<path fill="#F0F0F1" d="M230.825 129.893C231.289 129.661 231.854 129.85 232.085 130.314L235.611 137.391C237.209 138.055 238.895 138.496 240.65 138.706C241.764 138.839 241.983 138.91 242.495 139.078C242.958 139.229 243.66 139.459 245.48 139.883C244.862 142.436 243.74 144.916 242.266 146.984C241.043 148.724 239.597 150.076 238.099 150.883C236.254 151.851 234.899 151.633 233.881 151.446C230.491 150.829 228.496 148.067 227.51 146.312C227.549 146.261 227.587 146.209 227.625 146.159C227.586 146.094 227.555 146.023 227.532 145.947L224.705 136.633C224.555 136.137 224.835 135.612 225.332 135.461C225.829 135.31 226.354 135.59 226.504 136.086L229.007 144.334C229.868 143.204 230.365 142.557 230.825 141.885C231.481 140.926 232.06 139.916 233.506 137.383L230.402 131.152C230.17 130.688 230.36 130.124 230.825 129.893Z" clip-rule="evenodd" fill-rule="evenodd"></path>
<path fill="#F8AB5D" d="M271.805 168.732C268.788 167.356 265.79 165.938 262.773 164.562C262.36 164.349 262.252 165.136 262.655 165.314C265.671 166.689 268.67 168.108 271.686 169.484C272.1 169.697 272.207 168.91 271.805 168.732Z"></path>
<path fill="#F8AB5D" d="M274.589 164.377L270.103 160.475C269.756 160.167 269.293 160.723 269.669 161.022L274.155 164.925C274.542 165.258 274.976 164.711 274.589 164.377Z"></path>
<path fill="#F8AB5D" d="M283.25 156.285L284.725 161.108C284.872 161.59 285.509 161.395 285.362 160.913L283.887 156.09C283.758 155.564 283.092 155.768 283.25 156.285Z"></path>
<path fill="#F8AB5D" d="M291.493 156.924C291.172 158.153 290.84 159.346 290.49 160.584C290.345 161.042 291.051 161.279 291.156 160.794C291.477 159.566 291.809 158.372 292.159 157.135C292.274 156.685 291.608 156.475 291.493 156.924Z"></path>
<path fill="#FFE779" d="M1178.44 198.906L1208.45 195.569L1227.71 196.984L1250.92 208.582C1250.92 208.582 1245.69 305.195 1243.49 304.646C1241.24 304.098 1160.25 299.618 1160.25 297.926C1160.25 296.235 1154.94 252.622 1154.94 252.622L1178.44 198.906Z"></path>
<path fill="#FFA79B" d="M1151.51 209.558C1139.46 231.913 1136.11 238.633 1136.11 238.633L1098.92 205.672C1098.82 200.506 1098 195.203 1096.03 190.449C1093.56 184.552 1089.71 183.775 1085.59 179.157C1083.2 176.46 1080.36 180.117 1082.75 182.814L1085.17 185.74C1085.22 187.203 1086.04 191.043 1086.23 192.506C1082.24 188.712 1076.93 183.18 1071.8 180.803C1070.38 180.163 1069.05 180.666 1068.27 181.626C1067.08 181.763 1066.12 182.769 1065.84 183.912C1064.7 184.78 1064.06 186.563 1065.06 188.072C1064.28 188.895 1063.87 190.083 1064.42 191.363C1064.47 191.455 1064.51 191.5 1064.51 191.592C1064.19 191.912 1064.61 193.055 1064.29 193.603C1062.86 196.118 1066.99 206.175 1074.64 211.204C1076.88 216.415 1081.55 219.798 1081.92 219.89C1090.03 230.77 1118.11 269.537 1131.81 282.246C1147.34 296.692 1160.12 278.588 1170.47 245.628C1180.82 212.621 1182.79 201.466 1182.79 201.466L1209.41 195.889C1175.65 193.878 1163.6 187.157 1151.51 209.558Z"></path>
<path fill="#FFE779" d="M1209.55 195.843L1208.9 195.981L1190.86 199.775L1182.93 201.421C1182.93 201.421 1180.96 212.621 1170.61 245.582C1169.92 247.73 1169.23 249.833 1168.55 251.845C1159.52 244.165 1150.22 236.804 1140.83 229.536C1143.21 225.01 1146.65 218.518 1151.55 209.467C1160.85 192.232 1170.1 192.278 1189.39 194.061C1194.93 194.563 1201.25 195.249 1208.67 195.706C1208.95 195.798 1209.22 195.798 1209.55 195.843Z"></path>
<path fill="white" d="M1169.78 213.718C1168.96 222.77 1168.13 231.821 1167.26 240.873C1167.22 241.239 1167.81 241.239 1167.81 240.873C1168.64 231.821 1169.46 222.77 1170.33 213.718C1170.33 213.352 1169.78 213.352 1169.78 213.718Z"></path>
<path fill="#22272E" d="M1138.08 243.296C1137.72 242.199 1137.35 241.056 1136.98 239.959C1136.89 239.639 1136.34 239.776 1136.43 240.096C1136.8 241.193 1137.17 242.336 1137.53 243.433C1137.63 243.799 1138.17 243.662 1138.08 243.296Z"></path>
<path fill="#22272E" d="M1079.77 193.74C1076.61 190.403 1073.4 187.02 1070.24 183.683C1070.01 183.409 1069.6 183.82 1069.83 184.095C1072.99 187.432 1076.2 190.815 1079.36 194.152C1079.63 194.381 1080 193.969 1079.77 193.74Z"></path>
<path fill="#22272E" d="M1076.15 197.352C1073.26 194.06 1070.33 190.723 1067.45 187.432C1067.22 187.157 1066.8 187.569 1067.03 187.843C1069.92 191.135 1072.85 194.472 1075.74 197.763C1075.97 197.992 1076.38 197.58 1076.15 197.352Z"></path>
<path fill="#22272E" d="M1073.22 200.963C1070.88 198.358 1068.59 195.752 1066.25 193.146C1066.03 192.872 1065.61 193.283 1065.84 193.558C1068.18 196.163 1070.47 198.769 1072.81 201.375C1073.08 201.649 1073.49 201.238 1073.22 200.963Z"></path>
<path fill="#22272E" d="M1087.92 204.895C1086.55 201.832 1086.27 198.495 1087.05 195.203C1087.14 194.838 1086.59 194.701 1086.5 195.066C1085.68 198.495 1086 201.969 1087.42 205.169C1087.56 205.535 1088.06 205.215 1087.92 204.895Z"></path>
<path fill="#63737A" d="M1187.92 282.611C1178.07 282.291 1168.18 281.925 1158.33 281.194C1159.34 289.834 1160.21 297.24 1160.21 297.926C1160.21 299.617 1241.2 304.097 1243.44 304.646C1244.13 304.829 1244.5 296.097 1244.68 283.891C1225.76 283.617 1206.84 283.251 1187.92 282.611Z"></path>
<path fill="#63737A" d="M1226.54 286.04C1260.26 279.548 1303.45 266.611 1304.69 298.658C1305.93 330.658 1264.06 332.304 1217.38 332.213C1170.74 332.076 1168.27 332.076 1160.25 341.264C1152.79 349.859 1145.92 356.99 1137.03 348.99L1164.47 305.972C1164.51 306.018 1209.64 289.332 1226.54 286.04Z"></path>
<path fill="black" d="M1172.71 303C1167.72 304.783 1164.51 305.972 1164.51 305.972L1137.08 348.99C1146.01 356.99 1152.83 349.813 1160.3 341.264C1164.33 336.647 1166.94 334.361 1174.32 333.218C1172.35 323.39 1172.12 313.104 1172.71 303Z"></path>
<path fill="#FFA79B" d="M1221.59 320.829C1221.59 320.829 1214.22 316.075 1204.46 310.041C1203.13 321.15 1201.8 332.258 1199.79 343.23C1211.01 346.796 1213.35 349.63 1216.83 356.076C1222.28 366.225 1227.46 374.819 1238.68 369.242L1221.59 320.829Z"></path>
<path fill="#63737A" d="M1206.84 311.504C1193.1 302.955 1173.22 290.932 1163.05 286.452C1130.11 271.96 1089.07 248.965 1079.54 279.732C1070.01 310.498 1112.61 322.247 1160.53 333.401C1180.96 338.156 1193.15 341.036 1200.84 343.55C1203.41 332.99 1206.06 322.384 1206.84 311.504Z"></path>
<path fill="black" d="M1221.59 320.83C1221.59 320.83 1217.84 318.407 1212.16 314.841C1212.75 318.224 1213.76 321.561 1214.08 325.035C1214.35 328.464 1213.53 331.619 1212.2 334.773C1210.51 338.75 1208.35 342.407 1207.67 346.293C1212.52 348.762 1214.4 351.505 1216.87 356.076C1222.33 366.225 1227.5 374.82 1238.73 369.242L1221.59 320.83Z"></path>
<path fill="white" d="M1203.68 309.218C1188.79 301.766 1173.22 295.732 1157.19 291.16C1156.82 291.069 1156.68 291.617 1157.05 291.709C1173.04 296.28 1188.56 302.315 1203.41 309.721C1203.73 309.858 1204 309.401 1203.68 309.218Z"></path>
<path fill="white" d="M1259.11 291.023C1240.83 290.703 1222.6 292.12 1204.6 295.229C1199.42 296.143 1194.29 297.149 1189.21 298.338C1188.84 298.429 1189.02 298.978 1189.34 298.886C1207.16 294.772 1225.39 292.349 1243.67 291.709C1248.8 291.526 1253.98 291.48 1259.11 291.572C1259.48 291.617 1259.48 291.023 1259.11 291.023Z"></path>
<path fill="white" d="M1138.22 282.337C1131.12 280.143 1123.97 277.948 1116.87 275.8C1116.51 275.708 1116.37 276.211 1116.74 276.348C1123.84 278.543 1130.98 280.737 1138.08 282.886C1138.4 282.977 1138.54 282.474 1138.22 282.337Z"></path>
<path fill="#FFA79B" d="M1206.29 200.232C1210.23 199.272 1214.08 198.175 1217.97 197.078L1209.45 177.009L1194.52 183.637C1194.79 183.866 1197.18 193.603 1199.05 201.558C1201.48 201.101 1203.91 200.781 1206.29 200.232Z"></path>
<path fill="#FFA79B" d="M1220.95 167.088C1220.86 161.923 1213.12 156.62 1206.98 155.888C1204.32 155.568 1203.68 153.42 1202.4 155.202C1199.24 159.683 1188.93 173.26 1189.39 178.563C1190.08 186.289 1199.42 188.026 1205.51 185.146C1211.65 182.266 1221.09 174.403 1220.95 167.088Z"></path>
<path fill="#22272E" d="M1221.27 168.231C1222.1 166.906 1221.68 165.26 1220.59 164.346C1220.54 164.3 1220.54 164.3 1220.49 164.254C1220.86 161.694 1218.98 159.637 1216.69 159.408C1216.42 158.768 1215.91 158.265 1215.23 157.945C1215.13 157.671 1215.04 157.443 1214.86 157.26C1214.45 156.848 1213.94 156.665 1213.39 156.665C1213.03 155.523 1212.39 154.517 1211.29 153.968C1210.6 153.602 1209.82 153.694 1209.22 154.014C1207.9 152.642 1206.25 151.5 1204.6 151.408C1203.91 151.362 1202.54 151.682 1201.94 153.374C1201.25 153.328 1200.61 153.694 1200.29 154.425C1199.83 155.522 1200.38 156.665 1201.25 157.351C1201.76 157.763 1202.49 158.037 1203.18 157.991C1205.28 160.323 1211.01 164.346 1212.39 164.3C1211.33 166.723 1210.14 172.3 1213.03 172.803C1213.58 175.226 1210.87 179.203 1212.2 180.895C1215.13 178.517 1217.88 175.637 1219.49 172.529C1219.53 172.529 1219.62 172.529 1219.71 172.529C1221.78 172.071 1222.42 169.694 1221.27 168.231Z"></path>
<path fill="#FFA79B" d="M1218.62 178.746C1219.3 176.003 1216.6 172.483 1212.71 172.849C1210.92 175.363 1209.09 177.832 1207.21 180.255C1208.13 181.809 1210.92 183.683 1213.39 183.5C1216.19 183.226 1217.88 181.672 1218.62 178.746Z"></path>
<path fill="#22272E" d="M1214.4 176.917C1213.3 177.054 1212.2 177.146 1211.1 177.283C1210.74 177.329 1210.83 177.831 1211.19 177.831C1211.29 177.831 1211.33 177.831 1211.42 177.831C1211.47 177.831 1211.47 177.831 1211.52 177.831C1212.52 177.74 1213.48 177.603 1214.49 177.511C1214.86 177.42 1214.77 176.871 1214.4 176.917Z"></path>
<path fill="black" d="M1205.47 167.454C1205.15 167.82 1204.78 168.231 1204.46 168.597C1204.09 169.008 1203.54 168.368 1203.91 168.003C1204.23 167.637 1204.6 167.225 1204.92 166.86C1205.24 166.448 1205.79 167.043 1205.47 167.454Z"></path>
<path fill="black" d="M1200.29 163.203C1199.97 163.568 1199.6 163.98 1199.28 164.346C1198.92 164.757 1198.37 164.117 1198.73 163.751C1199.05 163.386 1199.42 162.974 1199.74 162.608C1200.06 162.197 1200.61 162.791 1200.29 163.203Z"></path>
<path fill="#22272E" d="M1197.13 167.226C1197.45 167.363 1197.27 167.866 1196.95 167.729C1196.21 167.454 1195.85 168.323 1196.03 168.917C1196.21 169.511 1196.72 169.923 1197.18 170.334C1197.45 170.563 1197.13 171.02 1196.86 170.792C1196.12 170.151 1195.25 169.329 1195.48 168.231C1195.57 167.454 1196.4 166.951 1197.13 167.226Z"></path>
<path fill="#22272E" d="M1206.52 164.528C1206.93 164.985 1207.3 165.397 1207.71 165.854C1208.22 166.402 1207.35 167.088 1206.84 166.54C1206.43 166.082 1206.06 165.671 1205.65 165.214C1205.19 164.665 1206.06 163.98 1206.52 164.528Z"></path>
<path fill="#22272E" d="M1201.39 160.003C1201.67 160.231 1201.94 160.46 1202.26 160.688C1202.81 161.145 1202.17 162.014 1201.62 161.603C1201.35 161.374 1201.07 161.145 1200.75 160.917C1200.2 160.46 1200.84 159.545 1201.39 160.003Z"></path>
<path fill="#22272E" d="M1193.79 175.912C1194.24 176.415 1195.02 176.552 1195.62 176.277C1195.94 176.14 1196.17 176.643 1195.85 176.78C1194.98 177.146 1194.02 176.963 1193.33 176.277C1193.1 176.003 1193.51 175.683 1193.79 175.912Z"></path>
<path fill="#FFA79B" d="M1222.69 196.438C1221.32 199.043 1219.35 201.284 1217.01 203.066C1214.45 205.032 1211.38 206.404 1207.94 206.952C1201.35 208.004 1193.92 205.215 1190.81 199.775C1189.89 198.129 1189.34 196.255 1189.34 194.152C1194.89 194.655 1201.21 195.34 1208.63 195.798L1208.35 195.569C1212.98 195.98 1217.84 196.163 1222.69 196.438Z"></path>
<path fill="#F7F7F7" d="M1217.19 173.557C1217.02 172.946 1216.44 172.599 1215.91 172.782L1206.91 175.867C1204.47 174.335 1202.25 172.542 1200.26 170.509C1199.11 169.334 1198.84 169.13 1198.19 168.646C1197.61 168.212 1196.72 167.551 1194.63 165.757C1192.31 167.759 1190.52 170.284 1189.52 172.988C1188.66 175.239 1188.43 177.537 1188.85 179.614C1189.41 182.16 1190.87 183.552 1191.99 184.588C1195.3 187.658 1199.4 187.866 1202.27 188.012L1202.27 188.012C1202.61 188.029 1202.94 188.046 1203.24 188.066C1203.3 187.906 1203.35 187.75 1203.4 187.599L1213.85 184.076C1214.39 183.893 1214.71 183.249 1214.56 182.637C1214.41 182.026 1213.85 181.678 1213.31 181.861L1204.34 184.883C1205 183.108 1205.32 182.564 1206.06 181.341C1206.51 180.595 1207.11 179.597 1208.03 177.915L1216.54 174.996C1217.07 174.813 1217.37 174.168 1217.19 173.557Z" clip-rule="evenodd" fill-rule="evenodd"></path>
<path fill="black" d="M1184.05 253.574H1172.27C1171.61 253.574 1170.98 253.157 1170.75 252.491L1162.06 230.463C1161.59 229.297 1162.42 228.006 1163.59 228.006H1175.36C1176.03 228.006 1176.65 228.423 1176.89 229.089L1185.57 251.117C1186.04 252.283 1185.22 253.574 1184.05 253.574Z"></path>
<path fill="white" d="M1174.78 229.464C1173.6 229.464 1172.43 229.506 1171.26 229.506C1170.94 229.506 1170.94 230.005 1171.26 230.005C1172.43 230.005 1173.6 229.964 1174.78 229.964C1175.09 229.964 1175.09 229.464 1174.78 229.464Z"></path>
<path fill="white" d="M1173.68 232.504C1172.82 232.42 1171.92 233.003 1171.73 233.919C1171.73 233.961 1171.73 234.003 1171.73 234.044C1171.69 234.086 1171.69 234.128 1171.69 234.169C1171.69 235.169 1172.47 236.001 1173.41 236.043C1174.31 236.085 1174.97 235.294 1175.05 234.336C1175.09 233.461 1174.54 232.629 1173.68 232.504ZM1173.49 235.585C1172.78 235.585 1172.2 234.96 1172.2 234.211C1172.2 234.169 1172.2 234.169 1172.2 234.128L1172.23 234.086C1172.55 232.67 1174.62 232.67 1174.62 234.253C1174.54 234.919 1174.15 235.585 1173.49 235.585Z"></path>
<path fill="white" d="M1180.8 243.497C1179.31 239.416 1177.83 235.293 1176.3 231.213C1176.19 230.921 1175.72 231.046 1175.83 231.338L1180.33 243.622C1180.45 243.955 1180.92 243.83 1180.8 243.497Z"></path>
<path fill="white" d="M1174.62 238.458C1174.97 238.458 1175.25 238.16 1175.25 237.792C1175.25 237.424 1174.97 237.126 1174.62 237.126C1174.28 237.126 1173.99 237.424 1173.99 237.792C1173.99 238.16 1174.28 238.458 1174.62 238.458Z"></path>
<path fill="#FFA79B" d="M1246.09 248.452C1241.44 247.369 1236.82 246.286 1232.2 245.079C1229.31 244.329 1226.45 243.621 1223.52 243.246L1221.52 255.614C1221.52 255.614 1194.92 250.159 1191.09 249.701C1190.35 245.995 1188.82 241.414 1187.02 238.458C1185.3 235.668 1182.99 234.46 1181.98 234.21C1179.94 233.711 1180.68 238.041 1182.87 239.207C1183.19 239.874 1182.76 245.87 1179.35 245.204C1178.53 244.704 1177.71 244.246 1176.89 243.788C1175.99 243.163 1170.87 241.706 1167.11 238C1166.29 237.417 1165.19 235.918 1164.18 235.834C1162.85 235.71 1161.99 236.792 1162.38 238.125C1162.49 238.583 1165.9 242.122 1166.25 242.497C1166.48 244.038 1166.29 244.912 1166.88 246.286C1166.91 247.702 1167.15 248.993 1167.58 250.242C1167.46 256.072 1171.53 259.653 1176.26 261.943C1177.83 263.317 1179.78 264.858 1182.13 266.565C1214.76 290.342 1234.43 295.589 1244.76 293.049C1251.92 291.258 1256.3 269.355 1256.34 251.783C1256.34 251.491 1256.34 251.2 1256.34 250.908C1252.86 250.034 1249.49 249.243 1246.09 248.452Z"></path>
<path fill="#FFE779" d="M1223.28 244.87L1228.45 212.807L1221.64 208.393L1216.05 204.771C1218.39 204.562 1221.06 204.354 1223.83 204.188C1237.17 203.355 1253.37 203.938 1254.5 217.554C1255.09 224.675 1256.26 238.333 1256.22 251.741C1245.19 249.826 1234.2 247.494 1223.28 244.87Z"></path>
<path fill="white" d="M1226.02 258.862C1224.89 257.946 1223.75 257.03 1222.62 256.113C1222.38 255.905 1222.15 256.363 1222.38 256.572C1223.52 257.488 1224.65 258.404 1225.79 259.32C1226.02 259.486 1226.26 259.028 1226.02 258.862Z"></path>
<path fill="#22272E" d="M1172.39 247.202C1170.94 246.245 1169.54 245.287 1168.09 244.329C1167.81 244.163 1167.58 244.579 1167.85 244.787C1169.3 245.745 1170.71 246.703 1172.16 247.66C1172.39 247.827 1172.66 247.369 1172.39 247.202Z"></path>
<path fill="#22272E" d="M1171.1 249.95C1169.81 249.409 1168.75 248.493 1168.01 247.243C1167.85 246.952 1167.42 247.243 1167.58 247.493C1168.4 248.826 1169.57 249.825 1170.98 250.408C1171.3 250.533 1171.41 250.075 1171.1 249.95Z"></path>
<path fill="#22272E" d="M1170.63 253.74C1169.85 253.032 1169.07 252.324 1168.28 251.658C1168.05 251.45 1167.7 251.824 1167.93 252.033C1168.71 252.741 1169.5 253.448 1170.28 254.115C1170.51 254.323 1170.87 253.948 1170.63 253.74Z"></path>
<path fill="#22272E" d="M1181.15 265.815C1175.76 263.567 1171.18 259.528 1168.13 254.281C1167.97 253.989 1167.54 254.239 1167.7 254.531C1170.83 259.902 1175.48 264.025 1181 266.315C1181.31 266.398 1181.43 265.899 1181.15 265.815Z"></path>
<path fill="white" d="M1224.65 223.467C1223.99 229.755 1223.36 236.084 1222.7 242.372C1222.66 242.705 1223.13 242.705 1223.17 242.372C1223.83 236.084 1224.46 229.755 1225.12 223.467C1225.2 223.134 1224.69 223.134 1224.65 223.467Z"></path>
<path fill="#63737A" d="M1174.03 216.886C1173.68 218.029 1173.33 219.171 1172.98 220.283C1172.84 220.746 1173.53 220.931 1173.68 220.499C1174.03 219.357 1174.38 218.214 1174.73 217.102C1174.87 216.639 1174.17 216.423 1174.03 216.886Z"></path>
<path fill="#63737A" d="M1183.58 214.416L1179.69 221.117C1179.46 221.518 1180.07 221.92 1180.3 221.487C1181.61 219.264 1182.89 217.041 1184.19 214.787C1184.43 214.385 1183.82 214.015 1183.58 214.416Z"></path>
<path fill="#63737A" d="M1189.33 230.289C1187.71 230.628 1186.11 230.968 1184.48 231.308C1184.05 231.4 1184.22 232.141 1184.69 232.049C1186.31 231.709 1187.91 231.369 1189.54 231.03C1189.97 230.937 1189.8 230.196 1189.33 230.289Z"></path>
<path stroke-dasharray="3.81 3.81" stroke="#E26E85" d="M273.172 166.573C413.464 45.2862 890.187 -9.65032 1176.22 239.153"></path>
<path fill="white" d="M179.218 196.824C179.205 196.015 179.215 195.148 179.202 194.338C179.179 194.061 179.213 193.807 179.19 193.529C179.18 186.824 179.17 180.12 179.16 173.415C179.148 172.941 179.911 173.044 179.865 173.495C179.863 180.061 179.839 186.685 179.895 193.274C179.918 193.551 179.884 193.806 179.907 194.083C179.932 195.031 179.898 195.956 179.9 196.962C179.935 197.378 179.23 197.298 179.218 196.824Z"></path>
</g>
<defs>
<clipPath id="clip0_2348_31150">
<rect fill="white" height="400" width="1440"></rect>
</clipPath>
</defs>
</svg>
