<svg xmlns="http://www.w3.org/2000/svg" fill="none" viewBox="0 0 1440 400" height="400" width="1440">
<g clip-path="url(#clip0_2348_31150)">
<rect fill="white" height="400" width="1440"></rect>
<rect fill="#FFE779" height="775" width="1442" y="-97" x="-2" opacity="0.15"></rect>
<path fill="#B8D8C7" d="M1328.96 98.3132H1104.94V327.055H1328.96V98.3132Z"></path>
<path fill="#6DAFA7" d="M1329 74.1077H1225.2V88.0377H1329V74.1077Z"></path>
<path fill="white" d="M1185.46 130.515H1142.68V167.023H1185.46V130.515Z"></path>
<path fill="white" d="M1295.03 119.226H1203.23V197.56H1295.03V119.226Z"></path>
<path fill="#6DAFA7" d="M1286.6 127.186H1210.99V134.712H1286.6V127.186Z"></path>
<path fill="#6DAFA7" d="M1286.01 142.926H1211.86C1211.07 142.926 1211.07 143.794 1211.86 143.794H1286.01C1286.8 143.794 1286.8 142.926 1286.01 142.926Z"></path>
<path fill="#6DAFA7" d="M1286.01 152.767H1211.86C1211.07 152.767 1211.07 153.635 1211.86 153.635H1286.01C1286.8 153.635 1286.8 152.767 1286.01 152.767Z"></path>
<path fill="#6DAFA7" d="M1286.01 162.608H1211.86C1211.07 162.608 1211.07 163.477 1211.86 163.477H1286.01C1286.8 163.513 1286.8 162.608 1286.01 162.608Z"></path>
<path fill="#6DAFA7" d="M1327.95 118.937H1323.96V189.962H1327.95V118.937Z"></path>
<path fill="white" d="M1258.45 79.8969H1229.48C1228.9 79.8969 1228.9 80.7652 1229.48 80.7652H1258.45C1259.03 80.8014 1259.03 79.8969 1258.45 79.8969Z"></path>
<path fill="white" d="M1328.96 104.102V104.971H1120.06C1119.48 104.971 1119.48 104.102 1120.06 104.102H1328.96Z"></path>
<path fill="white" d="M1174.3 125.667H1143.26C1142.68 125.667 1142.68 126.535 1143.26 126.535H1174.3C1174.88 126.535 1174.88 125.667 1174.3 125.667Z"></path>
<path fill="#6DAFA7" d="M256.659 257.183H108V368.246H256.659V257.183Z"></path>
<path fill="white" d="M182.411 272.336H124.16V318.077H182.411V272.336Z"></path>
<path fill="#E26E85" d="M120.66 261.408H113.699V267.38H120.66V261.408Z"></path>
<path fill="#EAF9F3" d="M235.369 316.087C235.247 316.087 235.125 316.046 235.003 315.965L193.523 275.545C193.32 275.342 193.32 275.057 193.523 274.854C193.727 274.651 194.012 274.651 194.215 274.854L235.695 315.274C235.898 315.477 235.898 315.762 235.695 315.965C235.613 316.046 235.491 316.087 235.369 316.087Z"></path>
<path fill="#EAF9F3" d="M194.378 316.574C194.256 316.574 194.134 316.534 194.012 316.452C193.808 316.249 193.808 315.965 194.012 315.762L234.514 274.367C234.718 274.164 235.003 274.164 235.206 274.367C235.41 274.57 235.41 274.854 235.206 275.057L194.704 316.452C194.623 316.534 194.5 316.574 194.378 316.574Z"></path>
<path fill="#22272E" d="M175.694 326.039H124.893C124.242 326.039 124.242 327.014 124.893 327.014H175.694C176.345 327.014 176.345 326.039 175.694 326.039Z"></path>
<path fill="#22272E" d="M175.694 332.742H124.893C124.242 332.742 124.242 333.717 124.893 333.717H175.694C176.345 333.717 176.345 332.742 175.694 332.742Z"></path>
<path fill="#22272E" d="M164.581 339.445H124.771C124.282 339.445 124.282 340.42 124.771 340.42H164.581C165.111 340.42 165.111 339.445 164.581 339.445Z"></path>
<path fill="#22272E" d="M165.762 282.613C160.918 291.063 156.074 299.553 151.23 308.003C147.159 303.047 143.089 298.091 139.018 293.175C138.611 292.688 137.919 293.378 138.326 293.866C142.56 298.984 146.752 304.103 150.986 309.221C151.189 309.465 151.637 309.384 151.759 309.14C156.725 300.487 161.691 291.794 166.658 283.141C166.942 282.573 166.088 282.045 165.762 282.613Z"></path>
<path fill="black" d="M269.99 153.823L254.971 158.907C254.702 158.998 254.469 159.197 254.353 159.477L243.642 182.572C243.242 183.429 244.066 184.352 244.956 184.051L259.786 179.03C260.056 178.939 260.289 178.74 260.404 178.46L271.331 155.292C271.704 154.445 270.88 153.522 269.99 153.823Z"></path>
<path fill="white" d="M262.956 165.069C264.061 164.695 264.56 163.774 264.547 162.938C264.534 162.101 264.007 161.258 262.998 161.209C261.873 161.169 260.948 161.632 260.448 162.463C260.073 163.13 260.041 163.922 260.377 164.469C260.704 164.99 261.309 165.266 262.047 165.226C262.407 165.224 262.686 165.16 262.956 165.069ZM263 161.569C263.793 161.601 264.174 162.283 264.178 162.913C264.182 163.812 263.539 164.751 262.063 164.83C261.442 164.86 260.982 164.655 260.727 164.261C260.455 163.812 260.479 163.173 260.809 162.641C261.201 161.937 262.001 161.546 263 161.569Z"></path>
<path fill="white" d="M255.867 159.418C260.2 157.921 264.569 156.442 268.901 154.945C269.117 154.872 269.236 155.222 269.02 155.295C264.687 156.792 260.319 158.271 255.986 159.768C255.78 159.868 255.652 159.491 255.867 159.418Z"></path>
<path fill="#FFA79B" d="M184.43 187.619C188.995 186.061 204.171 177.615 204.171 177.615L207.504 183.282C212.673 181.965 232.648 180.273 240.933 179.931C242.164 177.195 242.204 175.522 244.716 173.618C247.337 171.618 246.704 170.933 248.962 168.485C250.092 167.262 252.212 168.789 251.33 170.264C249.882 172.632 248.754 178.014 250.185 178.032C251.577 178.04 254.654 179.567 256.615 178.185C257.946 175.787 260.256 172.022 262.066 170.497C262.731 169.942 264.125 170.179 264.255 170.961C264.279 170.947 264.318 170.957 264.343 170.943C265.071 170.945 266.153 171.662 265.77 172.976C266.844 173.006 267.384 173.811 267.326 174.835C269.435 175.446 267.484 181.112 265.169 183.857C252.176 197.194 211.71 202.167 201.428 206.189C191.083 210.216 191.447 204.49 184.43 187.619Z"></path>
<path fill="black" d="M202.957 184.538L206.697 183.035C206.908 182.945 207.022 183.307 206.811 183.398C205.556 183.903 204.326 184.394 203.071 184.9C202.821 184.98 202.732 184.604 202.957 184.538Z"></path>
<path fill="black" d="M262.768 183.247C264.896 181.14 266.258 178.459 266.695 175.496C266.732 175.277 267.088 175.266 267.066 175.51C266.609 178.55 265.217 181.348 263.029 183.523C262.861 183.687 262.6 183.412 262.768 183.247Z"></path>
<path fill="black" d="M257.94 180.373C260.816 178.19 262.827 175.096 263.699 171.581C263.759 171.347 264.11 171.438 264.049 171.672C263.158 175.265 261.088 178.427 258.127 180.692C257.945 180.832 257.758 180.513 257.94 180.373Z"></path>
<path fill="black" d="M260.46 181.963C262.801 179.599 264.443 176.721 265.258 173.503C265.319 173.269 265.67 173.36 265.609 173.594C264.798 176.875 263.111 179.846 260.721 182.239C260.578 182.388 260.292 182.127 260.46 181.963Z"></path>
<path fill="#E26E85" d="M185.22 205.105L201.828 145.957L188.354 135.883C166.658 148.273 158.354 152.254 140.077 191.983C138.204 196.005 136.535 199.905 134.989 203.642C151.759 204.13 168.49 204.576 185.22 205.105Z"></path>
<path fill="#FFA79B" d="M312.589 311.13C297.039 310.034 295.696 311.699 289.468 278.266C288.735 274.407 288.125 270.589 287.596 266.933C287.026 267.258 286.415 267.583 285.845 267.908C280.513 270.873 274.936 273.473 269.278 275.788C265.696 277.251 262.073 278.632 258.491 280.176C263.213 291.306 270.865 307.028 283.362 328.639L323.254 320.474C323.254 320.474 324.353 311.984 312.589 311.13Z"></path>
<path fill="#22272E" d="M312.589 311.13C304.733 310.562 300.499 310.724 297.406 306.662C295.208 307.393 293.416 309.14 291.544 310.602C289.549 312.146 287.514 313.649 285.316 314.949C282.833 316.411 280.228 317.589 277.5 318.402C279.291 321.652 281.245 325.064 283.321 328.639L323.213 320.474C323.254 320.474 324.353 311.983 312.589 311.13Z"></path>
<path fill="#FFA79B" d="M275.547 337.129C261.259 329.167 259.264 330.182 268.26 295.693C269.278 291.712 270.418 287.853 271.557 284.116C270.865 284.157 270.133 284.238 269.441 284.278C263.05 284.725 256.618 284.725 250.227 284.4C246.157 284.197 242.127 283.872 238.056 283.75C237.568 296.384 237.853 314.705 240.051 340.704L281.571 350.656C281.53 350.697 286.334 343.141 275.547 337.129Z"></path>
<path fill="#FFE779" d="M237.853 289.763C239.4 289.925 240.906 290.128 242.452 290.331C248.233 291.144 254.054 291.631 259.875 292.078C262.928 292.322 269.481 291.834 272.534 292.038C281.53 259.092 291.34 235.775 265.574 227.081C239.033 218.144 183.551 210.832 183.551 210.832L184.935 205.917C168.693 204.048 152.451 202.058 136.169 200.758C121.474 235.45 120.375 257.305 139.385 258.239C159.982 259.214 241.313 258.239 241.313 258.239C241.313 258.239 238.26 265.47 237.853 289.763Z"></path>
<path fill="#22272E" d="M275.547 337.129C268.342 333.108 264.23 331.361 263.131 326.161C260.73 325.877 258.246 326.73 255.845 327.298C253.28 327.908 250.675 328.395 248.029 328.639C245.017 328.923 242.045 328.883 239.074 328.436C239.359 332.336 239.644 336.439 240.01 340.745L281.53 350.697C281.53 350.697 286.334 343.141 275.547 337.129Z"></path>
<path fill="#FFE779" d="M279.536 239.309C279.536 239.309 287.27 256.695 290.486 268.882C290.486 268.882 268.586 283.791 261.584 286.756C254.624 289.763 279.536 239.309 279.536 239.309Z"></path>
<path fill="#22272E" d="M268.22 294.109C267.853 295.084 267.528 296.1 267.161 297.075C267.039 297.359 267.528 297.522 267.65 297.197C268.016 296.222 268.342 295.206 268.708 294.231C268.83 293.947 268.342 293.825 268.22 294.109Z"></path>
<path fill="black" d="M178.992 215.219C177.486 214.732 175.98 214.244 174.514 213.757C174.188 213.676 174.066 214.123 174.392 214.244L178.87 215.707C179.155 215.788 179.277 215.341 178.992 215.219Z"></path>
<path fill="white" d="M280.961 247.962C279.617 256.086 278.233 264.17 276.89 272.295C276.849 272.62 277.297 272.742 277.378 272.417C278.722 264.292 280.106 256.208 281.449 248.084C281.49 247.799 281.001 247.637 280.961 247.962Z"></path>
<path fill="white" d="M243.552 256.736C243.063 257.061 242.575 257.386 242.045 257.711C241.76 257.874 242.045 258.321 242.29 258.158C242.778 257.833 243.267 257.508 243.796 257.183C244.04 256.98 243.796 256.574 243.552 256.736Z"></path>
<path fill="#FFA79B" d="M211.231 135.761C210.661 135.964 197.757 152.66 197.757 152.66L188.354 135.923L203.131 126.661L211.231 135.761Z"></path>
<path fill="black" d="M206.794 141.083C209.114 138.158 210.987 135.842 211.231 135.761L207.445 131.455C206.265 134.583 206.061 137.914 206.794 141.083Z"></path>
<path fill="#FFA79B" d="M269.644 247.312C267.324 246.662 265.533 245.646 263.701 244.346C263.294 243.94 258.287 241.99 257.88 241.543C258.857 239.756 264.108 241.584 265.94 242.153C267.365 242.559 270.255 241.584 267.853 239.431C265.777 237.603 256.578 232.322 255.804 232.403C253.199 231.266 250.227 231.022 247.378 231.266C231.788 216.398 211.15 202.139 205.166 194.989C205.166 194.989 205.084 186.255 204.881 177.603C204.799 174.109 204.637 169.966 204.474 165.131C203.823 148.313 202.194 138.93 192.466 135.355C192.466 135.355 176.59 147.664 176.265 162.857C175.939 178.05 170.321 206.729 181.109 217.21C191.936 227.731 229.02 244.224 237.893 248.084C239.766 249.83 243.796 252.187 245.017 253.283C248.436 257.102 254.054 259.539 259.386 259.214C260.363 259.174 261.015 258.646 261.381 257.996C261.544 257.671 261.91 257.549 262.276 257.589C262.806 257.671 263.335 257.752 263.864 257.793C265.207 257.914 265.981 257.061 266.143 256.046C266.225 255.599 266.632 255.233 267.08 255.274C267.08 255.274 267.08 255.274 267.12 255.274C269.237 255.436 269.929 253.202 269.156 251.74C269.237 251.74 269.278 251.74 269.359 251.74C273.308 251.821 272.534 248.124 269.644 247.312Z"></path>
<path fill="#E26E85" d="M183.062 180.324C189.25 179.877 195.396 179.065 201.543 178.131C202.642 177.968 203.782 177.765 204.881 177.603C204.799 174.109 204.637 169.965 204.474 165.131C203.822 148.313 202.194 138.929 192.465 135.355C192.465 135.355 176.59 147.663 176.264 162.856C176.142 167.812 175.491 174.231 175.003 180.974C177.648 180.731 180.335 180.527 183.062 180.324Z"></path>
<path fill="#22272E" d="M260.445 256.858C257.107 256.492 254.013 255.192 251.449 253.039C251.204 252.836 250.838 253.202 251.082 253.405C253.769 255.639 256.944 257.021 260.445 257.386C260.77 257.386 260.77 256.858 260.445 256.858Z"></path>
<path fill="#22272E" d="M265.085 253.771C261.91 253.527 258.939 252.349 256.455 250.358C256.211 250.155 255.845 250.521 256.089 250.724C258.694 252.836 261.747 254.055 265.085 254.299C265.411 254.299 265.411 253.771 265.085 253.771Z"></path>
<path fill="#22272E" d="M267.283 250.602C264.434 249.018 261.544 247.474 258.694 245.89C258.409 245.727 258.165 246.174 258.45 246.337C261.3 247.921 264.19 249.465 267.039 251.049C267.283 251.211 267.528 250.765 267.283 250.602Z"></path>
<path fill="#22272E" d="M204.759 195.152C204.107 194.502 203.415 193.811 202.764 193.161C202.52 192.917 202.194 193.283 202.398 193.527C203.049 194.177 203.741 194.867 204.392 195.517C204.637 195.72 204.962 195.355 204.759 195.152Z"></path>
<path fill="white" d="M232.764 218.469C229.834 215.951 226.862 213.432 223.931 210.873C223.687 210.67 223.321 211.035 223.565 211.238C226.496 213.757 229.467 216.276 232.398 218.835C232.642 219.038 233.009 218.672 232.764 218.469Z"></path>
<path fill="#FFA79B" d="M209.074 109.478C213.022 106.634 221.448 109.518 225.478 113.703C227.228 115.531 229.223 114.799 228.572 116.79C226.984 121.705 221.407 138.117 218.192 139.823C211.719 143.236 205.369 137.589 204.067 131.333C202.805 125.118 203.456 113.54 209.074 109.478Z"></path>
<path fill="#896068" d="M230.241 112.971C228.49 110.94 224.257 110.575 222.059 111.021C217.785 108.422 212.086 107.243 209.074 109.437C205.329 112.159 203.782 118.212 203.538 123.818C205.573 123.818 206.794 122.477 208.951 121.502C215.22 121.746 219.942 118.13 221.204 115.977C222.222 117.521 227.106 118.577 228.979 117.359C231.503 115.531 230.77 113.621 230.241 112.971Z"></path>
<path fill="black" d="M217.011 122.721C216.767 123.086 216.482 123.493 216.238 123.858C215.953 124.224 216.604 124.59 216.889 124.224C217.133 123.858 217.418 123.452 217.662 123.086C217.947 122.68 217.296 122.315 217.011 122.721Z"></path>
<path fill="black" d="M224.135 124.508C223.891 124.874 223.606 125.28 223.361 125.646C223.076 126.011 223.728 126.377 224.013 126.011C224.257 125.646 224.542 125.24 224.786 124.874C225.071 124.468 224.42 124.102 224.135 124.508Z"></path>
<path fill="#22272E" d="M221.693 128.53C221.448 128.327 221.123 128.692 221.367 128.895C221.896 129.342 221.367 129.992 220.838 130.114C220.309 130.236 219.739 130.033 219.25 129.83C218.965 129.708 218.721 130.155 219.047 130.277C219.861 130.602 220.878 130.927 221.652 130.277C222.181 129.83 222.222 128.977 221.693 128.53Z"></path>
<path fill="#896068" d="M218.884 121.137C218.395 121.015 217.866 120.893 217.378 120.771C216.767 120.609 216.563 121.583 217.174 121.746C217.663 121.868 218.192 121.99 218.68 122.112C219.332 122.233 219.535 121.258 218.884 121.137Z"></path>
<path fill="#896068" d="M225.559 122.152C225.275 122.03 224.99 121.908 224.664 121.746C224.094 121.502 223.646 122.396 224.216 122.64C224.501 122.762 224.786 122.883 225.112 123.046C225.722 123.29 226.17 122.396 225.559 122.152Z"></path>
<path fill="#22272E" d="M216.279 134.827C215.668 134.664 215.261 134.136 215.22 133.527C215.18 133.202 214.691 133.242 214.732 133.567C214.813 134.42 215.383 135.07 216.197 135.314C216.523 135.395 216.604 134.908 216.279 134.827Z"></path>
<path fill="#896068" d="M207.486 121.259C207.405 121.096 207.242 121.015 207.12 121.015C207.16 120.771 206.998 120.487 206.631 120.487C203.09 120.649 200.118 122.762 198.816 125.971C192.058 118.984 180.498 119.065 174.189 126.743C173.293 127.839 172.805 127.921 171.421 128.043C170.484 128.124 169.548 128.408 168.652 128.774C166.861 129.546 165.315 130.886 164.338 132.592C162.384 136.045 163.239 140.351 165.844 143.154C162.262 144.414 159.29 147.42 159.697 151.482C160.186 156.235 164.663 157.616 168.775 157.413C173.456 157.169 178.707 156.276 182.533 153.351C185.871 150.791 187.825 146.445 186.604 142.342C195.274 146.567 199.508 134.217 200.078 133.12C206.387 132.633 205.329 127.799 206.143 126.58C207.975 124.102 208.829 123.98 207.486 121.259Z"></path>
<path fill="#FFA79B" d="M202.072 121.868C201.177 124.305 203.293 127.88 206.875 128.043C208.748 125.93 210.661 123.899 212.615 121.868C211.923 120.365 209.603 118.252 207.323 118.13C204.759 118.009 203.008 119.227 202.072 121.868Z"></path>
<path fill="#22272E" d="M207.364 122.193C207.73 123.086 208.097 123.98 208.463 124.915C208.585 125.199 208.137 125.361 207.974 125.077C207.934 125.036 207.934 124.955 207.893 124.915C207.893 124.874 207.893 124.874 207.893 124.833C207.567 124.021 207.201 123.208 206.875 122.355C206.794 122.03 207.242 121.868 207.364 122.193Z"></path>
<path fill="#F0F0F1" d="M209.259 118.936C209.724 118.705 210.288 118.893 210.519 119.357L214.184 126.712C215.873 127.421 217.656 127.89 219.513 128.112C220.678 128.252 220.907 128.327 221.443 128.502C221.927 128.66 222.661 128.9 224.564 129.344C223.918 132.013 222.745 134.606 221.203 136.769C219.924 138.587 218.413 140.001 216.846 140.845C214.918 141.857 213.501 141.629 212.435 141.433C208.891 140.788 206.805 137.901 205.774 136.066C205.825 135.999 205.874 135.933 205.923 135.868C205.888 135.807 205.859 135.742 205.838 135.672L202.883 125.933C202.732 125.437 203.013 124.912 203.51 124.761C204.007 124.61 204.531 124.89 204.682 125.386L207.308 134.039C208.227 132.832 208.754 132.148 209.241 131.436C209.93 130.429 210.539 129.366 212.069 126.684L208.836 120.195C208.605 119.731 208.794 119.168 209.259 118.936Z" clip-rule="evenodd" fill-rule="evenodd"></path>
<path fill="#F8AB5D" d="M252.089 159.508C248.935 158.07 245.8 156.586 242.646 155.148C242.213 154.926 242.101 155.748 242.522 155.934C245.676 157.372 248.811 158.856 251.965 160.294C252.397 160.517 252.51 159.694 252.089 159.508Z"></path>
<path fill="#F8AB5D" d="M255 154.955L250.31 150.875C249.947 150.552 249.462 151.134 249.856 151.447L254.546 155.527C254.951 155.876 255.405 155.304 255 154.955Z"></path>
<path fill="#F8AB5D" d="M264.056 146.493L265.598 151.536C265.752 152.04 266.418 151.837 266.264 151.333L264.723 146.29C264.588 145.74 263.891 145.953 264.056 146.493Z"></path>
<path fill="#F8AB5D" d="M272.675 147.162C272.339 148.446 271.992 149.695 271.626 150.988C271.475 151.468 272.213 151.715 272.323 151.208C272.658 149.924 273.005 148.676 273.371 147.382C273.492 146.912 272.796 146.692 272.675 147.162Z"></path>
<path fill="#FFE779" d="M1200.07 191.058L1231.44 187.569L1251.58 189.049L1275.86 201.175C1275.86 201.175 1270.38 302.194 1268.09 301.62C1265.74 301.047 1181.05 296.362 1181.05 294.594C1181.05 292.825 1175.5 247.224 1175.5 247.224L1200.07 191.058Z"></path>
<path fill="#FFA79B" d="M1171.91 202.196C1159.31 225.57 1155.81 232.597 1155.81 232.597L1116.92 198.133C1116.82 192.731 1115.96 187.187 1113.9 182.215C1111.32 176.049 1107.29 175.237 1102.98 170.409C1100.49 167.589 1097.52 171.413 1100.01 174.233L1102.55 177.292C1102.6 178.822 1103.46 182.837 1103.65 184.366C1099.48 180.399 1093.93 174.615 1088.56 172.13C1087.08 171.46 1085.69 171.986 1084.88 172.99C1083.63 173.133 1082.62 174.185 1082.34 175.38C1081.14 176.288 1080.47 178.152 1081.52 179.73C1080.71 180.59 1080.28 181.833 1080.85 183.171C1080.9 183.267 1080.95 183.315 1080.95 183.41C1080.61 183.745 1081.04 184.94 1080.71 185.514C1079.22 188.143 1083.53 198.659 1091.53 203.917C1093.88 209.366 1098.77 212.903 1099.15 212.999C1107.63 224.375 1136.99 264.91 1151.31 278.198C1167.55 293.303 1180.91 274.374 1191.74 239.91C1202.56 205.398 1204.62 193.735 1204.62 193.735L1232.45 187.904C1197.15 185.8 1184.55 178.774 1171.91 202.196Z"></path>
<path fill="#FFE779" d="M1232.59 187.856L1231.92 187.999L1213.05 191.967L1204.76 193.687C1204.76 193.687 1202.7 205.398 1191.88 239.862C1191.16 242.109 1190.44 244.308 1189.72 246.411C1180.29 238.381 1170.56 230.685 1160.75 223.085C1163.24 218.352 1166.83 211.565 1171.95 202.1C1181.68 184.08 1191.35 184.127 1211.52 185.992C1217.31 186.517 1223.92 187.234 1231.68 187.712C1231.97 187.808 1232.26 187.808 1232.59 187.856Z"></path>
<path fill="white" d="M1191.02 206.546C1190.16 216.01 1189.29 225.475 1188.38 234.939C1188.34 235.321 1188.96 235.321 1188.96 234.939C1189.82 225.475 1190.68 216.01 1191.59 206.546C1191.59 206.163 1191.02 206.163 1191.02 206.546Z"></path>
<path fill="#22272E" d="M1157.87 237.472C1157.49 236.325 1157.11 235.13 1156.72 233.983C1156.63 233.648 1156.05 233.792 1156.15 234.126C1156.53 235.274 1156.91 236.469 1157.3 237.616C1157.39 237.998 1157.97 237.855 1157.87 237.472Z"></path>
<path fill="#22272E" d="M1096.9 185.657C1093.59 182.168 1090.24 178.63 1086.94 175.141C1086.7 174.854 1086.26 175.284 1086.5 175.571C1089.81 179.061 1093.16 182.598 1096.47 186.087C1096.75 186.326 1097.14 185.896 1096.9 185.657Z"></path>
<path fill="#22272E" d="M1093.11 189.433C1090.1 185.991 1087.03 182.502 1084.01 179.06C1083.77 178.774 1083.34 179.204 1083.58 179.491C1086.6 182.932 1089.67 186.422 1092.68 189.863C1092.92 190.102 1093.35 189.672 1093.11 189.433Z"></path>
<path fill="#22272E" d="M1090.05 193.209C1087.61 190.485 1085.21 187.76 1082.77 185.035C1082.53 184.749 1082.1 185.179 1082.34 185.466C1084.78 188.19 1087.17 190.915 1089.62 193.64C1089.9 193.926 1090.34 193.496 1090.05 193.209Z"></path>
<path fill="#22272E" d="M1105.42 197.32C1103.99 194.118 1103.7 190.628 1104.51 187.187C1104.61 186.804 1104.03 186.661 1103.94 187.043C1103.08 190.628 1103.41 194.261 1104.9 197.607C1105.04 197.989 1105.57 197.655 1105.42 197.32Z"></path>
<path fill="#63737A" d="M1209.99 278.58C1199.69 278.246 1189.34 277.863 1179.04 277.099C1180.1 286.133 1181.01 293.877 1181.01 294.594C1181.01 296.362 1265.69 301.047 1268.04 301.62C1268.76 301.811 1269.14 292.681 1269.33 279.919C1249.55 279.632 1229.77 279.25 1209.99 278.58Z"></path>
<path fill="#63737A" d="M1250.36 282.166C1285.62 275.378 1330.78 261.851 1332.08 295.359C1333.37 328.819 1289.59 330.54 1240.78 330.444C1192.02 330.301 1189.44 330.301 1181.05 339.908C1173.25 348.895 1166.06 356.352 1156.77 347.987L1185.46 303.007C1185.51 303.054 1232.69 285.607 1250.36 282.166Z"></path>
<path fill="black" d="M1194.08 299.9C1188.86 301.764 1185.51 303.007 1185.51 303.007L1156.82 347.986C1166.16 356.351 1173.3 348.847 1181.1 339.908C1185.32 335.08 1188.05 332.69 1195.76 331.495C1193.7 321.218 1193.46 310.463 1194.08 299.9Z"></path>
<path fill="#FFA79B" d="M1245.19 318.542C1245.19 318.542 1237.48 313.57 1227.28 307.261C1225.89 318.876 1224.5 330.492 1222.39 341.964C1234.13 345.692 1236.57 348.656 1240.21 355.396C1245.91 366.007 1251.32 374.994 1263.06 369.162L1245.19 318.542Z"></path>
<path fill="#63737A" d="M1229.77 308.791C1215.4 299.852 1194.61 287.28 1183.98 282.596C1149.54 267.443 1106.62 243.4 1096.66 275.569C1086.7 307.739 1131.24 320.024 1181.34 331.687C1202.7 336.658 1215.45 339.669 1223.49 342.298C1226.17 331.257 1228.95 320.167 1229.77 308.791Z"></path>
<path fill="black" d="M1245.19 318.542C1245.19 318.542 1241.26 316.008 1235.32 312.28C1235.95 315.817 1237 319.307 1237.33 322.939C1237.62 326.524 1236.76 329.823 1235.37 333.121C1233.6 337.279 1231.35 341.103 1230.63 345.166C1235.71 347.748 1237.67 350.616 1240.26 355.396C1245.96 366.007 1251.37 374.994 1263.1 369.162L1245.19 318.542Z"></path>
<path fill="white" d="M1226.46 306.4C1210.89 298.609 1194.61 292.299 1177.85 287.519C1177.46 287.424 1177.32 287.997 1177.7 288.093C1194.42 292.873 1210.66 299.182 1226.17 306.926C1226.51 307.07 1226.8 306.592 1226.46 306.4Z"></path>
<path fill="white" d="M1284.42 287.376C1265.31 287.041 1246.24 288.523 1227.42 291.774C1222.01 292.73 1216.64 293.781 1211.33 295.024C1210.94 295.12 1211.13 295.693 1211.47 295.598C1230.1 291.296 1249.17 288.762 1268.28 288.093C1273.64 287.902 1279.05 287.854 1284.42 287.95C1284.8 287.997 1284.8 287.376 1284.42 287.376Z"></path>
<path fill="white" d="M1158.02 278.294C1150.59 275.999 1143.12 273.705 1135.7 271.458C1135.31 271.363 1135.17 271.889 1135.55 272.032C1142.98 274.326 1150.45 276.621 1157.87 278.867C1158.21 278.963 1158.35 278.437 1158.02 278.294Z"></path>
<path fill="#FFA79B" d="M1229.19 192.445C1233.31 191.441 1237.33 190.294 1241.41 189.146L1232.5 168.162L1216.88 175.093C1217.17 175.332 1219.66 185.514 1221.62 193.831C1224.16 193.353 1226.7 193.018 1229.19 192.445Z"></path>
<path fill="#FFA79B" d="M1244.52 157.79C1244.42 152.388 1236.33 146.843 1229.91 146.079C1227.13 145.744 1226.46 143.497 1225.12 145.362C1221.82 150.046 1211.04 164.243 1211.52 169.787C1212.24 177.866 1222.01 179.682 1228.38 176.671C1234.8 173.659 1244.66 165.438 1244.52 157.79Z"></path>
<path fill="#22272E" d="M1244.85 158.985C1245.72 157.598 1245.29 155.878 1244.14 154.922C1244.09 154.874 1244.09 154.874 1244.04 154.826C1244.42 152.149 1242.46 149.998 1240.06 149.759C1239.78 149.09 1239.25 148.564 1238.53 148.23C1238.44 147.943 1238.34 147.704 1238.15 147.513C1237.72 147.082 1237.19 146.891 1236.62 146.891C1236.23 145.696 1235.56 144.645 1234.41 144.071C1233.69 143.689 1232.88 143.784 1232.26 144.119C1230.87 142.685 1229.14 141.49 1227.42 141.394C1226.7 141.346 1225.26 141.681 1224.64 143.45C1223.92 143.402 1223.25 143.784 1222.92 144.549C1222.44 145.696 1223.01 146.891 1223.92 147.608C1224.45 148.038 1225.22 148.325 1225.93 148.277C1228.14 150.715 1234.13 154.922 1235.56 154.874C1234.46 157.407 1233.22 163.239 1236.23 163.765C1236.81 166.298 1233.98 170.457 1235.37 172.225C1238.44 169.74 1241.31 166.728 1242.99 163.478C1243.03 163.478 1243.13 163.478 1243.23 163.478C1245.38 163 1246.05 160.514 1244.85 158.985Z"></path>
<path fill="#FFA79B" d="M1242.08 169.979C1242.8 167.111 1239.97 163.43 1235.9 163.812C1234.03 166.441 1232.11 169.023 1230.15 171.556C1231.11 173.181 1234.03 175.141 1236.62 174.95C1239.54 174.663 1241.31 173.038 1242.08 169.979Z"></path>
<path fill="#22272E" d="M1237.67 168.066C1236.52 168.21 1235.37 168.305 1234.22 168.449C1233.84 168.497 1233.93 169.022 1234.32 169.022C1234.41 169.022 1234.46 169.022 1234.56 169.022C1234.6 169.022 1234.6 169.022 1234.65 169.022C1235.71 168.927 1236.71 168.783 1237.77 168.688C1238.15 168.592 1238.05 168.019 1237.67 168.066Z"></path>
<path fill="black" d="M1228.33 158.172C1227.99 158.554 1227.61 158.984 1227.28 159.367C1226.89 159.797 1226.32 159.128 1226.7 158.745C1227.04 158.363 1227.42 157.933 1227.75 157.55C1228.09 157.12 1228.66 157.742 1228.33 158.172Z"></path>
<path fill="black" d="M1222.92 153.727C1222.58 154.109 1222.2 154.539 1221.86 154.922C1221.48 155.352 1220.91 154.683 1221.29 154.3C1221.62 153.918 1222.01 153.488 1222.34 153.105C1222.68 152.675 1223.25 153.296 1222.92 153.727Z"></path>
<path fill="#22272E" d="M1219.61 157.933C1219.95 158.076 1219.76 158.602 1219.42 158.459C1218.65 158.172 1218.27 159.08 1218.46 159.702C1218.65 160.323 1219.18 160.753 1219.66 161.183C1219.95 161.422 1219.61 161.9 1219.32 161.661C1218.56 160.992 1217.65 160.132 1217.89 158.985C1217.98 158.172 1218.85 157.646 1219.61 157.933Z"></path>
<path fill="#22272E" d="M1229.43 155.112C1229.86 155.591 1230.25 156.021 1230.68 156.499C1231.2 157.072 1230.29 157.789 1229.77 157.216C1229.34 156.738 1228.95 156.308 1228.52 155.83C1228.04 155.256 1228.95 154.539 1229.43 155.112Z"></path>
<path fill="#22272E" d="M1224.07 150.381C1224.35 150.62 1224.64 150.859 1224.98 151.098C1225.55 151.576 1224.88 152.484 1224.31 152.054C1224.02 151.815 1223.73 151.576 1223.4 151.337C1222.82 150.859 1223.49 149.903 1224.07 150.381Z"></path>
<path fill="#22272E" d="M1216.12 167.015C1216.59 167.541 1217.41 167.684 1218.03 167.397C1218.37 167.254 1218.61 167.78 1218.27 167.923C1217.36 168.306 1216.36 168.114 1215.64 167.397C1215.4 167.111 1215.83 166.776 1216.12 167.015Z"></path>
<path fill="#FFA79B" d="M1246.34 188.477C1244.9 191.202 1242.84 193.544 1240.4 195.408C1237.72 197.464 1234.51 198.898 1230.92 199.471C1224.02 200.571 1216.26 197.655 1213 191.967C1212.04 190.246 1211.47 188.286 1211.47 186.087C1217.27 186.613 1223.88 187.33 1231.63 187.808L1231.35 187.569C1236.19 187.999 1241.26 188.19 1246.34 188.477Z"></path>
<path fill="#F7F7F7" d="M1240.54 164.568C1240.37 163.957 1239.79 163.61 1239.26 163.794L1229.89 167.004C1227.33 165.395 1224.98 163.507 1222.88 161.366C1221.68 160.137 1221.4 159.924 1220.72 159.418C1220.11 158.964 1219.18 158.274 1216.99 156.398C1214.57 158.49 1212.7 161.13 1211.65 163.958C1210.75 166.311 1210.51 168.714 1210.96 170.887C1211.54 173.548 1213.06 175.004 1214.23 176.087C1217.7 179.297 1221.98 179.515 1224.99 179.667C1225.34 179.686 1225.68 179.703 1226 179.724C1226.07 179.534 1226.13 179.351 1226.19 179.174L1237.08 175.501C1237.62 175.318 1237.94 174.674 1237.79 174.062C1237.64 173.451 1237.08 173.103 1236.54 173.286L1227.13 176.458C1227.83 174.552 1228.17 173.985 1228.95 172.692C1229.42 171.902 1230.06 170.842 1231.04 169.041L1239.89 166.007C1240.43 165.824 1240.72 165.179 1240.54 164.568Z" clip-rule="evenodd" fill-rule="evenodd"></path>
<path fill="black" d="M1205.93 248.219H1193.62C1192.93 248.219 1192.27 247.784 1192.03 247.087L1182.95 224.054C1182.45 222.835 1183.31 221.486 1184.54 221.486H1196.85C1197.55 221.486 1198.2 221.921 1198.45 222.618L1207.53 245.65C1208.02 246.869 1207.16 248.219 1205.93 248.219Z"></path>
<path fill="white" d="M1196.24 223.009C1195.01 223.009 1193.79 223.053 1192.56 223.053C1192.23 223.053 1192.23 223.575 1192.56 223.575C1193.79 223.575 1195.01 223.532 1196.24 223.532C1196.57 223.532 1196.57 223.009 1196.24 223.009Z"></path>
<path fill="white" d="M1195.09 226.188C1194.19 226.101 1193.25 226.71 1193.05 227.668C1193.05 227.712 1193.05 227.755 1193.05 227.799C1193.01 227.842 1193.01 227.886 1193.01 227.929C1193.01 228.974 1193.83 229.845 1194.81 229.889C1195.75 229.932 1196.44 229.105 1196.53 228.104C1196.57 227.189 1195.99 226.318 1195.09 226.188ZM1194.89 229.41C1194.15 229.41 1193.54 228.757 1193.54 227.973C1193.54 227.929 1193.54 227.929 1193.54 227.886L1193.58 227.842C1193.91 226.362 1196.08 226.362 1196.08 228.016C1195.99 228.713 1195.58 229.41 1194.89 229.41Z"></path>
<path fill="white" d="M1202.54 237.682C1200.98 233.415 1199.43 229.105 1197.83 224.838C1197.71 224.533 1197.22 224.664 1197.34 224.969L1202.05 237.813C1202.17 238.161 1202.66 238.03 1202.54 237.682Z"></path>
<path fill="white" d="M1196.08 232.414C1196.44 232.414 1196.73 232.102 1196.73 231.717C1196.73 231.333 1196.44 231.021 1196.08 231.021C1195.71 231.021 1195.42 231.333 1195.42 231.717C1195.42 232.102 1195.71 232.414 1196.08 232.414Z"></path>
<path fill="#FFA79B" d="M1270.81 242.863C1265.94 241.731 1261.11 240.599 1256.28 239.336C1253.26 238.553 1250.27 237.812 1247.2 237.421L1245.12 250.352C1245.12 250.352 1217.3 244.648 1213.3 244.169C1212.52 240.294 1210.92 235.505 1209.04 232.414C1207.24 229.496 1204.83 228.234 1203.77 227.973C1201.64 227.45 1202.42 231.978 1204.71 233.197C1205.03 233.894 1204.58 240.164 1201.02 239.467C1200.17 238.945 1199.31 238.466 1198.45 237.987C1197.51 237.334 1192.15 235.81 1188.22 231.935C1187.36 231.325 1186.22 229.758 1185.15 229.671C1183.76 229.54 1182.86 230.672 1183.27 232.065C1183.4 232.544 1186.95 236.245 1187.32 236.637C1187.57 238.248 1187.36 239.162 1187.98 240.599C1188.02 242.079 1188.26 243.429 1188.71 244.735C1188.59 250.831 1192.84 254.575 1197.79 256.97C1199.43 258.407 1201.47 260.018 1203.93 261.803C1238.04 286.664 1258.62 292.15 1269.41 289.494C1276.9 287.622 1281.48 264.72 1281.52 246.346C1281.52 246.041 1281.52 245.737 1281.52 245.432C1277.88 244.518 1274.36 243.69 1270.81 242.863Z"></path>
<path fill="#FFE779" d="M1246.96 239.118L1252.36 205.593L1245.24 200.978L1239.39 197.19C1241.85 196.972 1244.63 196.755 1247.53 196.58C1261.48 195.71 1278.41 196.319 1279.6 210.557C1280.21 218.002 1281.44 232.283 1281.4 246.303C1269.86 244.3 1258.37 241.861 1246.96 239.118Z"></path>
<path fill="white" d="M1249.82 253.748C1248.64 252.79 1247.45 251.832 1246.26 250.874C1246.02 250.657 1245.77 251.136 1246.02 251.353C1247.2 252.311 1248.39 253.269 1249.58 254.227C1249.82 254.401 1250.07 253.922 1249.82 253.748Z"></path>
<path fill="#22272E" d="M1193.74 241.557C1192.23 240.555 1190.76 239.554 1189.24 238.553C1188.96 238.378 1188.71 238.814 1189 239.032C1190.51 240.033 1191.99 241.034 1193.5 242.036C1193.74 242.21 1194.03 241.731 1193.74 241.557Z"></path>
<path fill="#22272E" d="M1192.39 244.43C1191.04 243.864 1189.94 242.906 1189.16 241.6C1189 241.295 1188.55 241.6 1188.71 241.861C1189.57 243.254 1190.8 244.299 1192.27 244.909C1192.6 245.039 1192.72 244.56 1192.39 244.43Z"></path>
<path fill="#22272E" d="M1191.9 248.393C1191.09 247.652 1190.27 246.912 1189.45 246.216C1189.2 245.998 1188.84 246.39 1189.08 246.607C1189.9 247.348 1190.72 248.088 1191.54 248.784C1191.78 249.002 1192.15 248.61 1191.9 248.393Z"></path>
<path fill="#22272E" d="M1202.91 261.019C1197.26 258.668 1192.48 254.444 1189.29 248.958C1189.12 248.653 1188.67 248.915 1188.84 249.219C1192.11 254.836 1196.98 259.146 1202.74 261.541C1203.07 261.628 1203.19 261.106 1202.91 261.019Z"></path>
<path fill="white" d="M1248.39 216.739C1247.7 223.314 1247.04 229.932 1246.35 236.506C1246.3 236.854 1246.8 236.854 1246.84 236.506C1247.53 229.932 1248.19 223.314 1248.88 216.739C1248.96 216.391 1248.43 216.391 1248.39 216.739Z"></path>
<path fill="#63737A" d="M1195.46 209.858C1195.09 211.053 1194.73 212.247 1194.36 213.41C1194.21 213.894 1194.94 214.088 1195.09 213.636C1195.46 212.441 1195.82 211.246 1196.19 210.084C1196.34 209.6 1195.61 209.374 1195.46 209.858Z"></path>
<path fill="#63737A" d="M1205.45 207.275L1201.38 214.282C1201.14 214.702 1201.77 215.121 1202.02 214.669C1203.38 212.345 1204.72 210.02 1206.09 207.663C1206.33 207.243 1205.69 206.856 1205.45 207.275Z"></path>
<path fill="#63737A" d="M1211.46 223.872C1209.76 224.227 1208.09 224.582 1206.39 224.937C1205.93 225.034 1206.12 225.809 1206.6 225.712C1208.3 225.357 1209.97 225.002 1211.67 224.647C1212.13 224.55 1211.95 223.775 1211.46 223.872Z"></path>
<path stroke-dasharray="3.81 3.81" stroke="#E26E85" d="M253.518 157.251C400.209 30.4328 898.671 -27.009 1197.75 233.141"></path>
<path fill="white" d="M179.218 196.824C179.205 196.015 179.215 195.148 179.202 194.338C179.179 194.061 179.213 193.807 179.19 193.529C179.18 186.824 179.17 180.12 179.16 173.415C179.148 172.941 179.911 173.044 179.865 173.495C179.863 180.061 179.839 186.685 179.895 193.274C179.918 193.551 179.884 193.806 179.907 194.083C179.932 195.031 179.898 195.956 179.9 196.962C179.935 197.378 179.23 197.298 179.218 196.824Z"></path>
</g>
<defs>
<clipPath id="clip0_2348_31150">
<rect fill="white" height="400" width="1440"></rect>
</clipPath>
</defs>
</svg>
