<svg xmlns="http://www.w3.org/2000/svg" fill="none" viewBox="0 0 1440 400" height="400" width="1440">
<g clip-path="url(#clip0_2348_31150)">
<rect fill="white" height="400" width="1440"></rect>
<rect fill="#FFE779" height="775" width="1442" y="-97" x="-2" opacity="0.15"></rect>
<path fill="#B8D8C7" d="M1390.76 74.4211H1127.72V343H1390.76V74.4211Z"></path>
<path fill="#6DAFA7" d="M1390.8 46H1268.92V62.356H1390.8V46Z"></path>
<path fill="white" d="M1222.26 112.231H1172.03V155.097H1222.26V112.231Z"></path>
<path fill="white" d="M1350.91 98.9766H1243.12V190.953H1350.91V98.9766Z"></path>
<path fill="#6DAFA7" d="M1341.01 108.323H1252.23V117.159H1341.01V108.323Z"></path>
<path fill="#6DAFA7" d="M1340.31 126.803H1253.26C1252.33 126.803 1252.33 127.823 1253.26 127.823H1340.31C1341.24 127.823 1341.24 126.803 1340.31 126.803Z"></path>
<path fill="#6DAFA7" d="M1340.31 138.359H1253.26C1252.33 138.359 1252.33 139.378 1253.26 139.378H1340.31C1341.24 139.378 1341.24 138.359 1340.31 138.359Z"></path>
<path fill="#6DAFA7" d="M1340.31 149.914H1253.26C1252.33 149.914 1252.33 150.933 1253.26 150.933H1340.31C1341.24 150.976 1341.24 149.914 1340.31 149.914Z"></path>
<path fill="#6DAFA7" d="M1389.56 98.6367H1384.88V182.031H1389.56V98.6367Z"></path>
<path fill="white" d="M1307.96 52.7974H1273.94C1273.26 52.7974 1273.26 53.817 1273.94 53.817H1307.96C1308.64 53.8594 1308.64 52.7974 1307.96 52.7974Z"></path>
<path fill="white" d="M1390.76 81.2185V82.2381H1145.47C1144.79 82.2381 1144.79 81.2185 1145.47 81.2185H1390.76Z"></path>
<path fill="white" d="M1209.15 106.539H1172.71C1172.03 106.539 1172.03 107.558 1172.71 107.558H1209.15C1209.83 107.558 1209.83 106.539 1209.15 106.539Z"></path>
<path fill="#6DAFA7" d="M222.105 259.387H45V391.704H222.105V259.387Z"></path>
<path fill="white" d="M133.65 277.439H64.2528V331.934H133.65V277.439Z"></path>
<path fill="#E26E85" d="M60.0821 264.421H51.7894V271.535H60.0821V264.421Z"></path>
<path fill="#EAF9F3" d="M196.742 329.563C196.597 329.563 196.451 329.514 196.306 329.417L146.889 281.263C146.646 281.021 146.646 280.682 146.889 280.44C147.131 280.198 147.471 280.198 147.713 280.44L197.13 328.595C197.373 328.837 197.373 329.175 197.13 329.417C197.033 329.514 196.888 329.563 196.742 329.563Z"></path>
<path fill="#EAF9F3" d="M147.907 330.143C147.762 330.143 147.616 330.095 147.471 329.998C147.228 329.756 147.228 329.418 147.471 329.176L195.724 279.859C195.966 279.617 196.306 279.617 196.548 279.859C196.791 280.101 196.791 280.44 196.548 280.682L148.295 329.998C148.198 330.095 148.053 330.143 147.907 330.143Z"></path>
<path fill="#22272E" d="M125.648 341.42H65.1256C64.3497 341.42 64.3497 342.581 65.1256 342.581H125.648C126.424 342.581 126.424 341.42 125.648 341.42Z"></path>
<path fill="#22272E" d="M125.648 349.405H65.1256C64.3497 349.405 64.3497 350.567 65.1256 350.567H125.648C126.424 350.567 126.424 349.405 125.648 349.405Z"></path>
<path fill="#22272E" d="M112.409 357.391H64.9801C64.3982 357.391 64.3982 358.552 64.9801 358.552H112.409C113.039 358.552 113.039 357.391 112.409 357.391Z"></path>
<path fill="#22272E" d="M113.815 289.684C108.044 299.75 102.273 309.865 96.5023 319.932C91.6527 314.027 86.8032 308.123 81.9536 302.267C81.4687 301.686 80.6443 302.509 81.1292 303.09C86.1727 309.188 91.1678 315.286 96.2113 321.384C96.4538 321.674 96.9872 321.577 97.1327 321.287C103.049 310.978 108.966 300.621 114.882 290.313C115.222 289.635 114.203 289.006 113.815 289.684Z"></path>
<path fill="black" d="M237.989 136.248L220.096 142.305C219.774 142.414 219.497 142.651 219.359 142.984L206.599 170.499C206.121 171.52 207.103 172.619 208.163 172.26L225.832 166.28C226.153 166.171 226.43 165.934 226.568 165.601L239.585 137.999C240.031 136.989 239.049 135.89 237.989 136.248Z"></path>
<path fill="white" d="M229.608 149.646C230.925 149.2 231.519 148.104 231.504 147.107C231.488 146.111 230.86 145.106 229.658 145.047C228.317 145 227.215 145.552 226.62 146.541C226.174 147.337 226.136 148.28 226.536 148.932C226.925 149.552 227.646 149.881 228.525 149.834C228.954 149.832 229.286 149.755 229.608 149.646ZM229.661 145.476C230.605 145.515 231.06 146.327 231.064 147.077C231.069 148.149 230.303 149.268 228.544 149.362C227.804 149.398 227.256 149.154 226.953 148.684C226.628 148.149 226.657 147.388 227.05 146.754C227.518 145.915 228.47 145.45 229.661 145.476Z"></path>
<path fill="white" d="M221.163 142.914C226.325 141.131 231.529 139.368 236.691 137.585C236.948 137.498 237.089 137.915 236.832 138.002C231.671 139.786 226.466 141.548 221.305 143.332C221.058 143.451 220.906 143.001 221.163 142.914Z"></path>
<path fill="#FFA79B" d="M136.055 176.512C141.494 174.656 159.574 164.594 159.574 164.594L163.545 171.345C169.703 169.775 193.5 167.76 203.371 167.353C204.837 164.094 204.885 162.1 207.878 159.832C211 157.449 210.246 156.633 212.937 153.717C214.282 152.259 216.808 154.079 215.757 155.836C214.032 158.657 212.689 165.068 214.393 165.09C216.051 165.1 219.718 166.919 222.054 165.272C223.639 162.415 226.391 157.93 228.548 156.113C229.34 155.452 231.001 155.735 231.155 156.667C231.185 156.65 231.231 156.662 231.26 156.644C232.127 156.647 233.417 157.502 232.961 159.067C234.24 159.102 234.883 160.062 234.814 161.282C237.327 162.009 235.003 168.76 232.245 172.03C216.765 187.919 168.556 193.844 156.306 198.636C143.981 203.433 144.415 196.612 136.055 176.512Z"></path>
<path fill="black" d="M158.128 172.841L162.583 171.051C162.834 170.943 162.97 171.375 162.719 171.483C161.224 172.085 159.758 172.67 158.263 173.272C157.966 173.368 157.859 172.92 158.128 172.841Z"></path>
<path fill="black" d="M229.384 171.304C231.92 168.793 233.542 165.599 234.063 162.07C234.106 161.808 234.531 161.795 234.505 162.085C233.96 165.708 232.301 169.041 229.695 171.632C229.495 171.828 229.184 171.499 229.384 171.304Z"></path>
<path fill="black" d="M223.632 167.88C227.059 165.278 229.454 161.592 230.493 157.404C230.565 157.126 230.983 157.235 230.911 157.513C229.848 161.793 227.382 165.561 223.855 168.26C223.639 168.426 223.415 168.046 223.632 167.88Z"></path>
<path fill="black" d="M226.634 169.773C229.423 166.957 231.38 163.528 232.351 159.694C232.423 159.416 232.841 159.524 232.769 159.803C231.803 163.712 229.793 167.251 226.945 170.102C226.775 170.28 226.435 169.969 226.634 169.773Z"></path>
<path fill="#E26E85" d="M136.996 197.343L156.783 126.878L140.731 114.875C114.882 129.636 104.989 134.379 83.2149 181.711C80.9841 186.502 78.9958 191.148 77.153 195.601C97.1331 196.182 117.065 196.714 136.996 197.343Z"></path>
<path fill="black" d="M129.092 145.655C121.478 151.076 113.815 159.545 112.991 169.225C112.361 176.774 116.386 184.47 121.041 190.132C123.127 192.649 125.551 195.117 128.316 197.004C131.225 197.101 134.087 197.149 136.996 197.246L154.309 135.686C145.338 137.283 136.511 140.38 129.092 145.655Z"></path>
<path fill="#FFA79B" d="M288.739 323.658C270.214 322.351 268.613 324.336 261.193 284.505C260.32 279.908 259.593 275.358 258.963 271.003C258.284 271.39 257.556 271.777 256.877 272.164C250.524 275.697 243.881 278.794 237.14 281.553C232.872 283.295 228.556 284.941 224.288 286.78C229.914 300.04 239.031 318.77 253.919 344.517L301.445 334.789C301.445 334.789 302.754 324.674 288.739 323.658Z"></path>
<path fill="#22272E" d="M288.739 323.658C279.379 322.98 274.336 323.174 270.65 318.334C268.031 319.205 265.897 321.287 263.667 323.029C261.29 324.868 258.865 326.659 256.247 328.207C253.289 329.95 250.185 331.353 246.936 332.321C249.069 336.193 251.397 340.258 253.87 344.517L301.396 334.789C301.444 334.789 302.754 324.674 288.739 323.658Z"></path>
<path fill="#FFA79B" d="M244.608 354.632C227.586 345.146 225.21 346.356 235.927 305.267C237.14 300.524 238.497 295.927 239.855 291.474C239.031 291.523 238.158 291.619 237.334 291.668C229.72 292.2 222.057 292.2 214.444 291.813C209.594 291.571 204.793 291.184 199.944 291.039C199.362 306.09 199.701 327.917 202.32 358.89L251.785 370.748C251.737 370.796 257.459 361.794 244.608 354.632Z"></path>
<path fill="#FFE779" d="M199.701 298.201C201.544 298.395 203.338 298.637 205.181 298.879C212.067 299.847 219.002 300.428 225.937 300.96C229.574 301.25 237.382 300.67 241.019 300.912C251.737 261.662 263.424 233.882 232.726 223.526C201.107 212.878 135.008 204.167 135.008 204.167L136.657 198.311C117.307 196.085 97.9575 193.713 78.5593 192.165C61.0524 233.495 59.7431 259.533 82.3905 260.646C106.929 261.807 203.823 260.646 203.823 260.646C203.823 260.646 200.186 269.26 199.701 298.201Z"></path>
<path fill="#22272E" d="M244.608 354.632C236.024 349.841 231.126 347.759 229.817 341.565C226.956 341.226 223.997 342.242 221.136 342.92C218.081 343.646 214.977 344.227 211.825 344.517C208.236 344.856 204.696 344.807 201.156 344.275C201.495 348.921 201.835 353.809 202.271 358.939L251.737 370.796C251.737 370.796 257.459 361.794 244.608 354.632Z"></path>
<path fill="#FFE779" d="M249.36 238.093C249.36 238.093 258.575 258.806 262.406 273.325C262.406 273.325 236.315 291.087 227.974 294.62C219.681 298.201 249.36 238.093 249.36 238.093Z"></path>
<path fill="#22272E" d="M235.879 303.38C235.442 304.541 235.054 305.751 234.618 306.913C234.472 307.251 235.054 307.445 235.2 307.058C235.636 305.896 236.024 304.686 236.461 303.525C236.606 303.186 236.024 303.041 235.879 303.38Z"></path>
<path fill="black" d="M129.577 209.394C127.782 208.813 125.988 208.232 124.242 207.651C123.854 207.555 123.709 208.087 124.097 208.232L129.431 209.975C129.771 210.071 129.916 209.539 129.577 209.394Z"></path>
<path fill="white" d="M251.058 248.401C249.457 258.081 247.809 267.712 246.208 277.391C246.16 277.778 246.693 277.923 246.79 277.536C248.391 267.857 250.039 258.226 251.64 248.547C251.688 248.208 251.106 248.014 251.058 248.401Z"></path>
<path fill="white" d="M206.49 258.855C205.908 259.242 205.326 259.629 204.696 260.017C204.357 260.21 204.696 260.743 204.987 260.549C205.569 260.162 206.151 259.775 206.781 259.387C207.072 259.145 206.781 258.661 206.49 258.855Z"></path>
<path fill="#FFA79B" d="M167.985 114.73C167.306 114.972 151.933 134.863 151.933 134.863L140.731 114.924L158.335 103.889L167.985 114.73Z"></path>
<path fill="black" d="M162.699 121.07C165.463 117.586 167.694 114.827 167.985 114.73L163.475 109.6C162.069 113.327 161.826 117.295 162.699 121.07Z"></path>
<path fill="#FFA79B" d="M237.576 247.627C234.812 246.853 232.678 245.643 230.496 244.094C230.011 243.61 224.046 241.287 223.561 240.755C224.725 238.625 230.981 240.803 233.163 241.481C234.86 241.965 238.303 240.803 235.442 238.238C232.969 236.06 222.009 229.769 221.088 229.866C217.984 228.511 214.444 228.22 211.049 228.511C192.475 210.797 167.888 193.81 160.759 185.292C160.759 185.292 160.662 174.887 160.42 164.579C160.323 160.417 160.129 155.48 159.935 149.721C159.159 129.685 157.219 118.505 145.629 114.246C145.629 114.246 126.715 128.91 126.327 147.011C125.939 165.111 119.247 199.279 132.098 211.765C144.998 224.3 189.178 243.949 199.75 248.547C201.98 250.628 206.781 253.435 208.236 254.742C212.31 259.291 219.002 262.195 225.355 261.807C226.519 261.759 227.295 261.13 227.731 260.355C227.925 259.968 228.362 259.823 228.798 259.872C229.429 259.968 230.059 260.065 230.69 260.114C232.29 260.259 233.211 259.242 233.405 258.032C233.502 257.5 233.987 257.065 234.521 257.113C234.521 257.113 234.521 257.113 234.569 257.113C237.091 257.307 237.916 254.645 236.994 252.902C237.091 252.902 237.14 252.902 237.237 252.902C241.941 252.999 241.019 248.595 237.576 247.627Z"></path>
<path fill="#E26E85" d="M134.426 167.821C141.797 167.289 149.12 166.321 156.443 165.208C157.752 165.014 159.11 164.772 160.42 164.579C160.323 160.417 160.129 155.48 159.935 149.721C159.159 129.685 157.219 118.505 145.629 114.246C145.629 114.246 126.715 128.91 126.327 147.011C126.182 152.915 125.406 160.562 124.824 168.596C127.976 168.305 131.177 168.063 134.426 167.821Z"></path>
<path fill="#22272E" d="M226.616 259C222.639 258.565 218.954 257.016 215.899 254.451C215.608 254.209 215.171 254.645 215.462 254.887C218.663 257.548 222.445 259.194 226.616 259.629C227.004 259.629 227.004 259 226.616 259Z"></path>
<path fill="#22272E" d="M232.145 255.322C228.362 255.032 224.822 253.628 221.864 251.257C221.573 251.015 221.136 251.451 221.427 251.693C224.531 254.209 228.168 255.661 232.145 255.951C232.533 255.951 232.533 255.322 232.145 255.322Z"></path>
<path fill="#22272E" d="M234.763 251.547C231.369 249.66 227.926 247.821 224.531 245.933C224.191 245.74 223.9 246.272 224.24 246.466C227.635 248.353 231.078 250.192 234.472 252.08C234.763 252.273 235.054 251.741 234.763 251.547Z"></path>
<path fill="#22272E" d="M160.274 185.486C159.498 184.712 158.674 183.889 157.898 183.115C157.607 182.824 157.219 183.26 157.462 183.55C158.237 184.324 159.062 185.147 159.838 185.922C160.129 186.164 160.517 185.728 160.274 185.486Z"></path>
<path fill="white" d="M193.639 213.266C190.147 210.265 186.607 207.264 183.116 204.215C182.825 203.973 182.388 204.409 182.679 204.651C186.171 207.652 189.711 210.652 193.203 213.701C193.494 213.943 193.93 213.508 193.639 213.266Z"></path>
<path fill="#FFA79B" d="M165.415 83.4176C170.119 80.0299 180.157 83.466 184.958 88.4509C187.044 90.6287 189.42 89.7576 188.644 92.129C186.753 97.985 180.109 117.537 176.278 119.57C168.567 123.635 161.002 116.908 159.45 109.455C157.946 102.05 158.722 88.2573 165.415 83.4176Z"></path>
<path fill="#896068" d="M190.632 87.5797C188.547 85.1599 183.504 84.7243 180.885 85.2567C175.793 82.1593 169.003 80.7558 165.415 83.3692C160.953 86.6118 159.11 93.8229 158.819 100.502C161.244 100.502 162.699 98.9045 165.269 97.743C172.738 98.0334 178.363 93.7261 179.866 91.161C181.079 93.0001 186.898 94.2584 189.129 92.8065C192.136 90.6287 191.263 88.3541 190.632 87.5797Z"></path>
<path fill="black" d="M174.871 99.1948C174.58 99.6304 174.241 100.114 173.95 100.55C173.61 100.986 174.386 101.421 174.726 100.986C175.017 100.55 175.356 100.066 175.647 99.6304C175.987 99.1464 175.211 98.7109 174.871 99.1948Z"></path>
<path fill="black" d="M183.358 101.324C183.067 101.76 182.728 102.244 182.437 102.679C182.097 103.115 182.873 103.551 183.213 103.115C183.504 102.679 183.843 102.195 184.134 101.76C184.473 101.276 183.698 100.84 183.358 101.324Z"></path>
<path fill="#22272E" d="M180.448 106.115C180.158 105.873 179.77 106.309 180.061 106.551C180.691 107.083 180.061 107.858 179.43 108.003C178.8 108.148 178.121 107.906 177.539 107.664C177.199 107.519 176.908 108.051 177.296 108.196C178.266 108.584 179.479 108.971 180.4 108.196C181.03 107.664 181.079 106.648 180.448 106.115Z"></path>
<path fill="#896068" d="M177.102 97.3075C176.52 97.1623 175.89 97.0171 175.308 96.8719C174.58 96.6783 174.338 97.8398 175.065 98.0334C175.647 98.1786 176.278 98.3238 176.86 98.469C177.636 98.6142 177.878 97.4527 177.102 97.3075Z"></path>
<path fill="#896068" d="M185.055 98.5173C184.716 98.3721 184.376 98.2269 183.989 98.0333C183.31 97.7429 182.776 98.8077 183.455 99.0981C183.795 99.2433 184.134 99.3885 184.522 99.582C185.249 99.8724 185.783 98.8077 185.055 98.5173Z"></path>
<path fill="#22272E" d="M173.999 113.617C173.271 113.423 172.786 112.794 172.738 112.068C172.689 111.681 172.107 111.73 172.156 112.117C172.253 113.133 172.932 113.907 173.902 114.198C174.29 114.295 174.387 113.714 173.999 113.617Z"></path>
<path fill="#896068" d="M163.523 97.4526C163.426 97.259 163.233 97.1622 163.087 97.1622C163.136 96.8719 162.942 96.5331 162.505 96.5331C158.286 96.7267 154.746 99.2433 153.194 103.067C145.144 94.7424 131.371 94.8392 123.854 103.986C122.787 105.293 122.205 105.39 120.556 105.535C119.441 105.632 118.326 105.97 117.259 106.406C115.125 107.326 113.282 108.923 112.118 110.955C109.79 115.069 110.809 120.199 113.913 123.538C109.645 125.039 106.105 128.62 106.59 133.46C107.172 139.122 112.506 140.768 117.404 140.526C122.981 140.235 129.237 139.17 133.796 135.686C137.772 132.637 140.1 127.458 138.645 122.57C148.975 127.604 154.018 112.891 154.697 111.584C162.214 111.004 160.953 105.244 161.923 103.793C164.105 100.84 165.124 100.695 163.523 97.4526Z"></path>
<path fill="#FFA79B" d="M157.074 98.1786C156.007 101.082 158.528 105.341 162.796 105.535C165.027 103.018 167.306 100.598 169.634 98.1786C168.809 96.3879 166.045 93.8713 163.329 93.7261C160.274 93.5809 158.189 95.0328 157.074 98.1786Z"></path>
<path fill="#22272E" d="M163.378 98.5657C163.814 99.6304 164.251 100.695 164.687 101.808C164.833 102.147 164.299 102.341 164.105 102.002C164.057 101.953 164.057 101.857 164.008 101.808C164.008 101.76 164.008 101.76 164.008 101.711C163.62 100.744 163.184 99.7756 162.796 98.7592C162.699 98.3721 163.232 98.1785 163.378 98.5657Z"></path>
<path fill="#F0F0F1" d="M165.716 94.8466C166.181 94.6151 166.745 94.8035 166.976 95.2675L171.248 103.841C173.336 104.747 175.546 105.342 177.852 105.618C179.24 105.784 179.513 105.873 180.151 106.082C180.728 106.271 181.603 106.557 183.869 107.085C183.1 110.265 181.702 113.354 179.865 115.931C178.342 118.098 176.541 119.782 174.674 120.787C172.377 121.993 170.689 121.721 169.42 121.488C165.197 120.72 162.713 117.279 161.484 115.094C161.586 114.959 161.685 114.827 161.781 114.699C161.762 114.658 161.746 114.616 161.732 114.572L158.211 102.969C158.061 102.473 158.342 101.948 158.838 101.797C159.335 101.646 159.86 101.926 160.011 102.422L163.177 112.856C164.356 111.306 165.011 110.46 165.614 109.578C166.451 108.355 167.188 107.063 169.091 103.729L165.293 96.1059C165.062 95.6419 165.251 95.0781 165.716 94.8466Z" clip-rule="evenodd" fill-rule="evenodd"></path>
<path fill="#F8AB5D" d="M216.662 143.021C212.904 141.308 209.169 139.54 205.411 137.827C204.896 137.562 204.762 138.542 205.264 138.764C209.021 140.477 212.756 142.245 216.514 143.958C217.029 144.223 217.163 143.243 216.662 143.021Z"></path>
<path fill="#F8AB5D" d="M220.13 137.597L214.542 132.736C214.109 132.352 213.532 133.045 214.001 133.417L219.589 138.279C220.071 138.694 220.612 138.013 220.13 137.597Z"></path>
<path fill="#F8AB5D" d="M230.919 127.516L232.756 133.524C232.94 134.125 233.733 133.882 233.549 133.281L231.713 127.274C231.552 126.619 230.722 126.872 230.919 127.516Z"></path>
<path fill="#F8AB5D" d="M241.186 128.313C240.787 129.843 240.374 131.33 239.938 132.871C239.757 133.442 240.636 133.737 240.767 133.134C241.167 131.604 241.58 130.116 242.016 128.575C242.16 128.015 241.331 127.753 241.186 128.313Z"></path>
<path fill="#FFE779" d="M1239.41 183.319L1276.25 179.222L1299.9 180.959L1328.4 195.197C1328.4 195.197 1321.97 313.809 1319.27 313.136C1316.52 312.462 1217.09 306.962 1217.09 304.886C1217.09 302.809 1210.56 249.266 1210.56 249.266L1239.41 183.319Z"></path>
<path fill="#FFA79B" d="M1206.34 196.396C1191.55 223.841 1187.45 232.091 1187.45 232.091L1141.78 191.625C1141.67 185.283 1140.66 178.773 1138.24 172.936C1135.2 165.696 1130.48 164.741 1125.42 159.073C1122.49 155.761 1119 160.251 1121.93 163.563L1124.91 167.155C1124.97 168.951 1125.98 173.665 1126.2 175.461C1121.31 170.803 1114.79 164.012 1108.49 161.093C1106.74 160.308 1105.11 160.925 1104.16 162.104C1102.69 162.272 1101.51 163.507 1101.18 164.91C1099.77 165.976 1098.98 168.165 1100.22 170.017C1099.26 171.027 1098.76 172.487 1099.43 174.058C1099.49 174.17 1099.55 174.227 1099.55 174.339C1099.15 174.732 1099.66 176.135 1099.26 176.808C1097.52 179.895 1102.58 192.243 1111.97 198.416C1114.73 204.815 1120.47 208.968 1120.92 209.08C1130.87 222.438 1165.35 270.032 1182.16 285.635C1201.23 303.37 1216.92 281.145 1229.63 240.679C1242.34 200.156 1244.76 186.462 1244.76 186.462L1277.43 179.615C1235.98 177.145 1221.19 168.895 1206.34 196.396Z"></path>
<path fill="#FFE779" d="M1277.6 179.558L1276.81 179.727L1254.65 184.385L1244.93 186.406C1244.93 186.406 1242.51 200.156 1229.8 240.622C1228.95 243.26 1228.11 245.842 1227.27 248.312C1216.19 238.883 1204.77 229.846 1193.24 220.923C1196.17 215.366 1200.38 207.396 1206.4 196.284C1217.82 175.125 1229.18 175.181 1252.85 177.37C1259.66 177.987 1267.42 178.829 1276.53 179.39C1276.87 179.502 1277.21 179.502 1277.6 179.558Z"></path>
<path fill="white" d="M1228.78 201.503C1227.77 212.616 1226.76 223.729 1225.69 234.842C1225.64 235.291 1226.37 235.291 1226.37 234.842C1227.38 223.729 1228.39 212.616 1229.46 201.503C1229.46 201.054 1228.78 201.054 1228.78 201.503Z"></path>
<path fill="#22272E" d="M1189.87 237.816C1189.42 236.469 1188.97 235.066 1188.52 233.719C1188.4 233.326 1187.73 233.494 1187.84 233.887C1188.29 235.234 1188.74 236.638 1189.19 237.985C1189.3 238.434 1189.98 238.265 1189.87 237.816Z"></path>
<path fill="#22272E" d="M1118.27 176.977C1114.39 172.88 1110.46 168.726 1106.58 164.629C1106.29 164.292 1105.79 164.798 1106.07 165.134C1109.95 169.231 1113.89 173.385 1117.77 177.482C1118.1 177.762 1118.55 177.257 1118.27 176.977Z"></path>
<path fill="#22272E" d="M1113.83 181.41C1110.29 177.369 1106.69 173.272 1103.14 169.231C1102.86 168.895 1102.36 169.4 1102.64 169.736C1106.18 173.777 1109.78 177.874 1113.32 181.915C1113.61 182.196 1114.11 181.691 1113.83 181.41Z"></path>
<path fill="#22272E" d="M1110.23 185.844C1107.36 182.645 1104.55 179.446 1101.68 176.247C1101.4 175.91 1100.9 176.415 1101.18 176.752C1104.04 179.951 1106.86 183.15 1109.72 186.35C1110.06 186.686 1110.57 186.181 1110.23 185.844Z"></path>
<path fill="#22272E" d="M1128.28 190.671C1126.6 186.911 1126.26 182.814 1127.22 178.773C1127.33 178.324 1126.65 178.155 1126.54 178.604C1125.53 182.814 1125.92 187.079 1127.67 191.008C1127.83 191.457 1128.45 191.064 1128.28 190.671Z"></path>
<path fill="#896068" d="M1251.06 286.084C1238.96 285.691 1226.82 285.242 1214.72 284.344C1215.96 294.951 1217.03 304.044 1217.03 304.885C1217.03 306.962 1316.46 312.462 1319.22 313.136C1320.06 313.36 1320.51 302.64 1320.74 287.655C1297.51 287.318 1274.28 286.869 1251.06 286.084Z"></path>
<path fill="#896068" d="M1298.47 290.293C1339.86 282.323 1392.89 266.44 1394.41 305.784C1395.93 345.071 1344.53 347.092 1287.22 346.979C1229.97 346.811 1226.93 346.811 1217.09 358.092C1207.92 368.644 1199.48 377.399 1188.57 367.577L1222.26 314.764C1222.32 314.82 1277.71 294.334 1298.47 290.293Z"></path>
<path fill="black" d="M1333.33 287.655C1337.44 288.946 1341.55 289.171 1345.82 288.609C1352.46 287.767 1358.19 284.849 1362.13 280.303C1351.5 280.247 1339.24 282.155 1326.81 284.568C1328.67 286.084 1331.53 287.094 1333.33 287.655Z"></path>
<path fill="black" d="M1232.38 311.115C1226.25 313.304 1222.32 314.764 1222.32 314.764L1188.63 367.577C1199.6 377.399 1207.98 368.587 1217.14 358.092C1222.09 352.423 1225.3 349.617 1234.35 348.214C1231.93 336.147 1231.65 323.519 1232.38 311.115Z"></path>
<path fill="#FFA79B" d="M1292.39 333.004C1292.39 333.004 1283.34 327.167 1271.36 319.759C1269.73 333.397 1268.1 347.036 1265.62 360.506C1279.4 364.883 1282.27 368.363 1286.54 376.277C1293.24 388.736 1299.59 399.288 1313.37 392.441L1292.39 333.004Z"></path>
<path fill="#896068" d="M1274.28 321.555C1257.41 311.06 1233 296.299 1220.52 290.798C1180.08 273.007 1129.69 244.776 1117.99 282.548C1106.29 320.32 1158.6 334.744 1217.42 348.439C1242.51 354.276 1257.47 357.812 1266.92 360.899C1270.06 347.934 1273.33 334.913 1274.28 321.555Z"></path>
<path fill="black" d="M1292.39 333.004C1292.39 333.004 1287.78 330.03 1280.81 325.652C1281.54 329.805 1282.77 333.902 1283.17 338.168C1283.51 342.377 1282.49 346.25 1280.86 350.122C1278.78 355.005 1276.14 359.495 1275.29 364.266C1281.26 367.297 1283.56 370.664 1286.6 376.277C1293.29 388.737 1299.65 399.288 1313.43 392.441L1292.39 333.004Z"></path>
<path fill="white" d="M1270.4 318.748C1252.12 309.6 1233 302.192 1213.32 296.579C1212.87 296.467 1212.7 297.14 1213.15 297.253C1232.78 302.865 1251.84 310.274 1270.06 319.366C1270.46 319.534 1270.8 318.973 1270.4 318.748Z"></path>
<path fill="white" d="M1338.45 296.411C1316.01 296.018 1293.63 297.758 1271.53 301.574C1265.17 302.697 1258.87 303.932 1252.63 305.391C1252.18 305.503 1252.41 306.177 1252.8 306.064C1274.68 301.013 1297.06 298.038 1319.5 297.253C1325.8 297.028 1332.15 296.972 1338.45 297.084C1338.9 297.141 1338.9 296.411 1338.45 296.411Z"></path>
<path fill="white" d="M1190.04 285.747C1181.32 283.053 1172.54 280.359 1163.83 277.721C1163.38 277.609 1163.21 278.226 1163.66 278.395C1172.38 281.089 1181.15 283.783 1189.87 286.42C1190.26 286.533 1190.43 285.915 1190.04 285.747Z"></path>
<path fill="#FFA79B" d="M1273.61 184.946C1278.44 183.768 1283.17 182.421 1287.95 181.074L1277.49 156.435L1259.15 164.573C1259.49 164.854 1262.42 176.808 1264.72 186.574C1267.7 186.013 1270.68 185.62 1273.61 184.946Z"></path>
<path fill="#FFA79B" d="M1291.6 144.256C1291.49 137.914 1281.99 131.403 1274.45 130.505C1271.19 130.112 1270.4 127.474 1268.83 129.663C1264.95 135.164 1252.29 151.833 1252.85 158.343C1253.7 167.828 1265.17 169.961 1272.65 166.425C1280.19 162.889 1291.77 153.236 1291.6 144.256Z"></path>
<path fill="#22272E" d="M1292 145.659C1293.01 144.031 1292.5 142.011 1291.15 140.888C1291.1 140.832 1291.1 140.832 1291.04 140.776C1291.49 137.633 1289.19 135.107 1286.37 134.827C1286.04 134.041 1285.42 133.424 1284.57 133.031C1284.46 132.694 1284.35 132.413 1284.12 132.189C1283.62 131.684 1283 131.459 1282.32 131.459C1281.87 130.056 1281.09 128.821 1279.74 128.148C1278.89 127.699 1277.94 127.811 1277.21 128.204C1275.58 126.52 1273.55 125.117 1271.53 125.005C1270.68 124.949 1269 125.342 1268.26 127.418C1267.42 127.362 1266.63 127.811 1266.24 128.709C1265.68 130.056 1266.35 131.459 1267.42 132.301C1268.04 132.806 1268.94 133.143 1269.78 133.087C1272.37 135.949 1279.4 140.888 1281.09 140.832C1279.79 143.807 1278.33 150.654 1281.87 151.271C1282.55 154.246 1279.23 159.129 1280.86 161.206C1284.46 158.287 1287.84 154.751 1289.8 150.935C1289.86 150.935 1289.97 150.935 1290.09 150.935C1292.62 150.373 1293.4 147.455 1292 145.659Z"></path>
<path fill="#FFA79B" d="M1288.74 158.568C1289.58 155.2 1286.26 150.879 1281.48 151.328C1279.29 154.415 1277.04 157.445 1274.73 160.42C1275.86 162.328 1279.29 164.629 1282.32 164.405C1285.76 164.068 1287.84 162.16 1288.74 158.568Z"></path>
<path fill="#22272E" d="M1283.56 156.323C1282.21 156.491 1280.86 156.603 1279.51 156.772C1279.06 156.828 1279.18 157.445 1279.63 157.445C1279.74 157.445 1279.79 157.445 1279.91 157.445C1279.96 157.445 1279.96 157.445 1280.02 157.445C1281.26 157.333 1282.44 157.165 1283.67 157.052C1284.12 156.94 1284.01 156.267 1283.56 156.323Z"></path>
<path fill="black" d="M1272.59 144.705C1272.2 145.154 1271.75 145.659 1271.36 146.108C1270.91 146.613 1270.23 145.827 1270.68 145.378C1271.08 144.929 1271.53 144.424 1271.92 143.975C1272.31 143.47 1272.99 144.2 1272.59 144.705Z"></path>
<path fill="black" d="M1266.24 139.485C1265.85 139.934 1265.4 140.439 1265 140.888C1264.55 141.394 1263.88 140.608 1264.33 140.159C1264.72 139.71 1265.17 139.205 1265.57 138.756C1265.96 138.25 1266.63 138.98 1266.24 139.485Z"></path>
<path fill="#22272E" d="M1262.36 144.424C1262.75 144.593 1262.53 145.21 1262.13 145.042C1261.23 144.705 1260.78 145.771 1261.01 146.501C1261.23 147.231 1261.85 147.736 1262.42 148.241C1262.75 148.521 1262.36 149.083 1262.02 148.802C1261.12 148.016 1260.05 147.006 1260.33 145.659C1260.45 144.705 1261.46 144.088 1262.36 144.424Z"></path>
<path fill="#22272E" d="M1273.89 141.113C1274.39 141.674 1274.84 142.179 1275.35 142.74C1275.97 143.414 1274.9 144.256 1274.28 143.582C1273.78 143.021 1273.33 142.516 1272.82 141.954C1272.26 141.281 1273.33 140.439 1273.89 141.113Z"></path>
<path fill="#22272E" d="M1267.59 135.556C1267.93 135.837 1268.26 136.118 1268.66 136.398C1269.33 136.96 1268.55 138.026 1267.87 137.521C1267.53 137.24 1267.2 136.96 1266.8 136.679C1266.13 136.118 1266.91 134.995 1267.59 135.556Z"></path>
<path fill="#22272E" d="M1258.25 155.088C1258.82 155.705 1259.77 155.874 1260.5 155.537C1260.9 155.369 1261.18 155.986 1260.78 156.155C1259.72 156.604 1258.54 156.379 1257.69 155.537C1257.41 155.2 1257.92 154.807 1258.25 155.088Z"></path>
<path fill="#FFA79B" d="M1293.74 180.288C1292.05 183.487 1289.64 186.237 1286.77 188.426C1283.62 190.84 1279.85 192.523 1275.63 193.197C1267.53 194.488 1258.42 191.064 1254.6 184.385C1253.47 182.365 1252.8 180.063 1252.8 177.482C1259.6 178.099 1267.36 178.941 1276.48 179.502L1276.14 179.222C1281.82 179.727 1287.78 179.951 1293.74 180.288Z"></path>
<path fill="#F7F7F7" d="M1286.77 152.273C1286.59 151.662 1286.02 151.315 1285.48 151.498L1274.65 155.212C1271.55 153.293 1268.72 151.03 1266.2 148.455C1264.79 147.013 1264.45 146.762 1263.66 146.168C1262.94 145.635 1261.86 144.824 1259.28 142.621C1256.44 145.079 1254.25 148.178 1253.01 151.498C1251.95 154.262 1251.67 157.083 1252.2 159.634C1252.88 162.759 1254.67 164.469 1256.04 165.74C1260.11 169.509 1265.15 169.765 1268.67 169.944C1269.09 169.965 1269.49 169.985 1269.86 170.011C1269.97 169.702 1270.07 169.408 1270.16 169.129L1282.82 164.859C1283.36 164.676 1283.68 164.032 1283.53 163.42C1283.38 162.809 1282.82 162.461 1282.28 162.644L1271.1 166.414C1271.98 163.983 1272.38 163.324 1273.32 161.753C1273.9 160.789 1274.69 159.48 1275.92 157.207L1286.12 153.712C1286.65 153.528 1286.94 152.884 1286.77 152.273Z" clip-rule="evenodd" fill-rule="evenodd"></path>
<path fill="black" d="M1246.3 250.434H1231.84C1231.03 250.434 1230.26 249.923 1229.97 249.105L1219.31 222.061C1218.73 220.63 1219.74 219.045 1221.18 219.045H1235.64C1236.45 219.045 1237.22 219.556 1237.51 220.374L1248.17 247.418C1248.75 248.85 1247.74 250.434 1246.3 250.434Z"></path>
<path fill="white" d="M1234.92 220.834C1233.47 220.834 1232.03 220.885 1230.59 220.885C1230.21 220.885 1230.21 221.499 1230.59 221.499C1232.03 221.499 1233.47 221.448 1234.92 221.448C1235.3 221.448 1235.3 220.834 1234.92 220.834Z"></path>
<path fill="white" d="M1233.57 224.566C1232.51 224.464 1231.41 225.18 1231.17 226.304C1231.17 226.356 1231.17 226.407 1231.17 226.458C1231.12 226.509 1231.12 226.56 1231.12 226.611C1231.12 227.838 1232.08 228.861 1233.23 228.912C1234.34 228.963 1235.16 227.992 1235.25 226.816C1235.3 225.742 1234.63 224.72 1233.57 224.566ZM1233.33 228.349C1232.47 228.349 1231.75 227.583 1231.75 226.662C1231.75 226.611 1231.75 226.611 1231.75 226.56L1231.79 226.509C1232.18 224.771 1234.72 224.771 1234.72 226.713C1234.63 227.531 1234.15 228.349 1233.33 228.349Z"></path>
<path fill="white" d="M1242.31 238.062C1240.49 233.052 1238.66 227.991 1236.79 222.981C1236.64 222.624 1236.07 222.777 1236.21 223.135L1241.74 238.216C1241.88 238.625 1242.46 238.471 1242.31 238.062Z"></path>
<path fill="white" d="M1234.72 231.877C1235.15 231.877 1235.49 231.51 1235.49 231.059C1235.49 230.607 1235.15 230.241 1234.72 230.241C1234.3 230.241 1233.96 230.607 1233.96 231.059C1233.96 231.51 1234.3 231.877 1234.72 231.877Z"></path>
<path fill="#FFA79B" d="M1322.47 244.146C1316.75 242.816 1311.09 241.487 1305.42 240.005C1301.86 239.085 1298.36 238.215 1294.76 237.755L1292.31 252.939C1292.31 252.939 1259.65 246.242 1254.94 245.679C1254.03 241.129 1252.16 235.506 1249.95 231.876C1247.83 228.451 1245 226.969 1243.75 226.662C1241.26 226.048 1242.17 231.365 1244.86 232.797C1245.24 233.614 1244.71 240.976 1240.53 240.158C1239.53 239.545 1238.52 238.982 1237.51 238.42C1236.4 237.653 1230.11 235.864 1225.5 231.314C1224.49 230.598 1223.15 228.758 1221.9 228.656C1220.27 228.502 1219.21 229.831 1219.69 231.467C1219.84 232.03 1224.01 236.375 1224.45 236.835C1224.73 238.727 1224.49 239.8 1225.21 241.487C1225.26 243.225 1225.55 244.81 1226.08 246.344C1225.93 253.501 1230.93 257.898 1236.74 260.709C1238.66 262.396 1241.06 264.288 1243.94 266.384C1284 295.575 1308.16 302.016 1320.84 298.898C1329.62 296.699 1335 269.809 1335.05 248.235C1335.05 247.878 1335.05 247.52 1335.05 247.162C1330.78 246.088 1326.65 245.117 1322.47 244.146Z"></path>
<path fill="#FFE779" d="M1294.47 239.749L1300.81 200.385L1292.45 194.966L1285.58 190.518C1288.47 190.263 1291.73 190.007 1295.14 189.803C1311.52 188.78 1331.4 189.496 1332.79 206.213C1333.51 214.955 1334.95 231.723 1334.91 248.184C1321.36 245.833 1307.87 242.97 1294.47 239.749Z"></path>
<path fill="white" d="M1297.83 256.926C1296.44 255.801 1295.04 254.677 1293.65 253.552C1293.36 253.296 1293.08 253.859 1293.36 254.114C1294.76 255.239 1296.15 256.364 1297.54 257.488C1297.83 257.693 1298.12 257.131 1297.83 256.926Z"></path>
<path fill="#22272E" d="M1231.99 242.612C1230.21 241.436 1228.48 240.26 1226.7 239.085C1226.37 238.88 1226.08 239.391 1226.42 239.647C1228.19 240.823 1229.92 241.998 1231.7 243.174C1231.99 243.379 1232.32 242.816 1231.99 242.612Z"></path>
<path fill="#22272E" d="M1230.4 245.985C1228.82 245.321 1227.52 244.196 1226.61 242.662C1226.42 242.305 1225.89 242.662 1226.08 242.969C1227.09 244.605 1228.53 245.832 1230.26 246.548C1230.64 246.701 1230.79 246.139 1230.4 245.985Z"></path>
<path fill="#22272E" d="M1229.83 250.638C1228.86 249.769 1227.9 248.9 1226.94 248.082C1226.66 247.827 1226.22 248.287 1226.51 248.542C1227.47 249.411 1228.43 250.28 1229.39 251.098C1229.68 251.354 1230.11 250.894 1229.83 250.638Z"></path>
<path fill="#22272E" d="M1242.74 265.463C1236.12 262.703 1230.5 257.744 1226.75 251.302C1226.56 250.945 1226.03 251.251 1226.22 251.609C1230.07 258.204 1235.78 263.265 1242.55 266.077C1242.94 266.179 1243.08 265.566 1242.74 265.463Z"></path>
<path fill="white" d="M1296.15 213.472C1295.33 221.192 1294.56 228.962 1293.75 236.682C1293.7 237.091 1294.28 237.091 1294.32 236.682C1295.14 228.962 1295.91 221.192 1296.73 213.472C1296.82 213.063 1296.2 213.063 1296.15 213.472Z"></path>
<path fill="#63737A" d="M1234 205.393C1233.57 206.795 1233.14 208.198 1232.71 209.563C1232.53 210.132 1233.39 210.359 1233.57 209.828C1234 208.426 1234.42 207.023 1234.85 205.658C1235.03 205.089 1234.17 204.824 1234 205.393Z"></path>
<path fill="#63737A" d="M1245.73 202.36L1240.95 210.587C1240.66 211.08 1241.41 211.572 1241.7 211.042C1243.3 208.312 1244.87 205.582 1246.48 202.815C1246.76 202.322 1246.01 201.867 1245.73 202.36Z"></path>
<path fill="#63737A" d="M1252.79 221.847C1250.79 222.264 1248.83 222.681 1246.83 223.098C1246.3 223.212 1246.51 224.121 1247.08 224.008C1249.08 223.591 1251.04 223.174 1253.04 222.757C1253.57 222.643 1253.36 221.733 1252.79 221.847Z"></path>
<path stroke-dasharray="3.81 3.81" stroke="#E26E85" d="M228 133.57C382.5 -3.05176e-05 907.5 -60.5 1222.5 213.5"></path>
</g>
<defs>
<clipPath id="clip0_2348_31150">
<rect fill="white" height="400" width="1440"></rect>
</clipPath>
</defs>
</svg>
