<svg xmlns="http://www.w3.org/2000/svg" fill="none" viewBox="0 0 110 32" height="32" width="110">
<path fill="#186181" d="M25.7168 1.73079C24.6027 0.622445 23.0932 0 21.5194 0C19.9457 0 18.4362 0.622445 17.3221 1.73079L13.7621 5.28049L10.2133 1.76185C9.67112 1.20814 9.02379 0.767607 8.30907 0.465934C7.59435 0.164261 6.82656 0.00748383 6.05045 0.0047436H6.01262C4.84868 0.000860853 3.70973 0.341358 2.73993 0.983146C1.77012 1.62493 1.01305 2.53916 0.56451 3.61014C0.115973 4.68112 -0.00386394 5.8607 0.220164 6.99961C0.444191 8.13852 1.00201 9.18557 1.82304 10.0083L7.65686 15.8253L9.14758 14.3389L3.32266 8.52181C2.80014 7.99202 2.44621 7.32013 2.3053 6.59048C2.16438 5.86083 2.24276 5.10593 2.53059 4.42054C2.81842 3.73514 3.30287 3.1498 3.92315 2.73797C4.54342 2.32615 5.27188 2.1062 6.01707 2.10572H6.05045C6.54108 2.1069 7.02668 2.2045 7.47946 2.39294C7.93224 2.58137 8.34334 2.85695 8.68924 3.20391L12.4249 6.93998L12.485 6.92667C13.3236 6.75141 14.1895 6.75141 15.0281 6.92667H15.086L18.8105 3.21057C19.5292 2.49552 20.503 2.09394 21.5183 2.09394C22.5336 2.09394 23.5074 2.49552 24.2261 3.21057C24.9315 3.91447 25.3278 4.86886 25.3278 5.86397C25.3278 6.85909 24.9315 7.81348 24.2261 8.51738L21.1423 11.599L22.6308 13.0854L25.7168 10.0083C26.8156 8.90951 27.4326 7.42117 27.4326 5.86952C27.4326 4.31787 26.8156 2.82954 25.7168 1.73079Z"></path>
<path fill="#33AAAA" d="M25.7947 17.3356L17.5623 9.12926C16.5562 8.12809 15.1926 7.5658 13.771 7.5658C12.3494 7.5658 10.9859 8.12809 9.9797 9.12926L1.74738 17.3356C0.628372 18.4544 0 19.9698 0 21.5497C0 23.1296 0.628372 24.645 1.74738 25.7638C2.88237 26.8928 4.42031 27.5269 6.02374 27.5269C7.62716 27.5269 9.1651 26.8928 10.3001 25.7638L13.791 22.2838L17.2508 25.7327C17.8013 26.2955 18.4585 26.7436 19.1842 27.0509C19.91 27.3582 20.6898 27.5185 21.4783 27.5226H21.5161C22.7019 27.5264 23.8622 27.1793 24.85 26.5253C25.8378 25.8713 26.6087 24.9399 27.0652 23.8489C27.5216 22.7579 27.6431 21.5564 27.4141 20.3966C27.1852 19.2367 26.6162 18.1707 25.7791 17.3334L25.7947 17.3356ZM24.1482 24.1247C23.8053 24.4681 23.3975 24.7402 22.9484 24.9252C22.4992 25.1103 22.0177 25.2046 21.5317 25.2026H21.5094C20.548 25.2 19.6269 24.8171 18.9485 24.138L15.1505 20.352C14.699 20.4575 14.2369 20.5111 13.7732 20.5117C13.324 20.5114 12.8762 20.4608 12.4383 20.3609L8.65585 24.1314C8.31677 24.4755 7.91302 24.7497 7.46764 24.9383C7.02226 25.1269 6.54398 25.2261 6.06011 25.2305C5.57624 25.2348 5.09625 25.1441 4.64755 24.9635C4.19886 24.7829 3.79023 24.516 3.44502 24.178C3.0998 23.84 2.82475 23.4375 2.63557 22.9935C2.4464 22.5495 2.34679 22.0728 2.34246 21.5904C2.33812 21.1081 2.42913 20.6296 2.61029 20.1823C2.79145 19.735 3.05921 19.3277 3.39829 18.9836L6.56217 15.8296L9.13199 13.2635L11.6306 10.7728C12.1999 10.2073 12.9707 9.88979 13.7744 9.88979C14.578 9.88979 15.3488 10.2073 15.9181 10.7728L18.3922 13.2391L20.9821 15.823L24.146 18.9769C24.8301 19.6598 25.2145 20.5853 25.2149 21.5504C25.2154 22.5154 24.8317 23.4413 24.1482 24.1247Z"></path>
<path fill="#186181" d="M6.56441 15.8253L9.132 13.2651L6.56441 15.8253Z"></path>
<path fill="#186181" d="M15.9982 16.7283C15.413 17.3128 14.6194 17.6423 13.791 17.6446H13.7755C13.3622 17.6466 12.9526 17.5667 12.5706 17.4094C12.1886 17.2521 11.8419 17.0206 11.5505 16.7283L8.94287 14.137L7.45438 15.6212L10.0553 18.2147C10.6362 18.7942 11.347 19.2277 12.129 19.4793C13.0512 19.7806 14.0389 19.8219 14.9832 19.5988C15.9274 19.3756 16.7915 18.8966 17.48 18.2147L22.6308 13.0854L21.1423 11.599L15.9982 16.7283Z"></path>
<path fill="#186181" d="M35.7849 19.3678C36.016 21.4795 38.0959 25.012 43.5265 25.012C48.3024 25.012 50.6133 21.8635 50.6133 19.0222C50.6133 16.2577 48.7646 14.1075 45.2212 13.3396L42.3711 12.7637C41.2156 12.5333 40.4838 11.8038 40.4838 10.8055C40.4838 9.6536 41.6008 8.65531 43.1799 8.65531C45.6834 8.65531 46.4922 10.3831 46.6463 11.4582L50.4208 10.3831C50.1126 8.54012 48.418 5.16129 43.1799 5.16129C39.2898 5.16129 36.2856 7.92579 36.2856 11.1894C36.2856 13.762 38.0188 15.9121 41.3311 16.6417L44.1042 17.256C45.6063 17.5632 46.2996 18.3311 46.2996 19.3294C46.2996 20.4812 45.3367 21.4795 43.488 21.4795C41.1001 21.4795 39.829 19.9821 39.675 18.2927L35.7849 19.3678Z"></path>
<path fill="#186181" d="M59.0521 32L70.9919 5.73722H66.2545L61.209 17.5632L55.8168 5.73722H50.7713L58.7825 22.2091L54.2762 32H59.0521Z"></path>
<path fill="#186181" d="M77.1916 13.6468C77.1916 11.1894 78.5397 9.23125 81.0817 9.23125C83.8933 9.23125 84.9332 11.0742 84.9332 13.378V24.436H89.401V12.6101C89.401 8.50173 87.2056 5.19968 82.6223 5.19968C80.5425 5.19968 78.3086 6.08279 77.0761 8.23296V5.73722H72.7239V24.436H77.1916V13.6468Z"></path>
<path fill="#186181" d="M100.887 9.26964C103.737 9.26964 105.008 11.1126 105.432 12.7637L109.437 11.3046C108.667 8.30975 105.894 5.16129 100.848 5.16129C95.4563 5.16129 91.2581 9.30804 91.2581 15.0674C91.2581 20.75 95.4563 25.012 100.964 25.012C105.894 25.012 108.706 21.8251 109.591 18.907L105.663 17.4864C105.239 18.907 103.891 20.942 100.964 20.942C98.1524 20.942 95.7259 18.8302 95.7259 15.0674C95.7259 11.3046 98.1524 9.26964 100.887 9.26964Z"></path>
</svg>
