<svg xmlns="http://www.w3.org/2000/svg" fill="none" viewBox="0 0 83 24" height="24" width="83">
<path fill="#186181" d="M18.6849 1.25753C17.8754 0.452245 16.7786 0 15.6352 0C14.4918 0 13.395 0.452245 12.5856 1.25753L9.99905 3.83661L7.42063 1.28009C7.02668 0.87779 6.55635 0.557715 6.03706 0.33853C5.51777 0.119346 4.95992 0.00543747 4.39603 0.00344652H4.36855C3.52287 0.000625464 2.69536 0.248018 1.99073 0.714317C1.28611 1.18062 0.736046 1.84486 0.410155 2.62299C0.0842652 3.40112 -0.00280406 4.25816 0.159966 5.08566C0.322736 5.91315 0.728029 6.67389 1.32456 7.27162L5.56319 11.4981L6.64629 10.4181L2.41412 6.19163C2.03448 5.80671 1.77733 5.31854 1.67495 4.7884C1.57256 4.25826 1.62951 3.70978 1.83863 3.2118C2.04776 2.71382 2.39975 2.28852 2.85042 1.98931C3.30108 1.69009 3.83035 1.53028 4.37178 1.52994H4.39603C4.75251 1.5308 5.10532 1.60171 5.4343 1.73862C5.76327 1.87553 6.06196 2.07575 6.31328 2.32784L9.02749 5.04233L9.07114 5.03266C9.68043 4.90532 10.3096 4.90532 10.9189 5.03266H10.9609L13.667 2.33268C14.1892 1.81315 14.8967 1.52138 15.6344 1.52138C16.3721 1.52138 17.0796 1.81315 17.6018 2.33268C18.1143 2.84411 18.4022 3.53753 18.4022 4.26054C18.4022 4.98356 18.1143 5.67698 17.6018 6.18841L15.3612 8.42737L16.4427 9.50736L18.6849 7.27162C19.4832 6.47331 19.9315 5.39194 19.9315 4.26457C19.9315 3.13721 19.4832 2.05583 18.6849 1.25753Z"></path>
<path fill="#33AAAA" d="M18.7414 12.5954L12.7601 6.63298C12.0291 5.90557 11.0384 5.49702 10.0055 5.49702C8.97261 5.49702 7.98191 5.90557 7.25088 6.63298L1.26958 12.5954C0.456552 13.4083 0 14.5093 0 15.6572C0 16.8051 0.456552 17.9061 1.26958 18.719C2.09422 19.5393 3.21163 20 4.37662 20C5.54161 20 6.65902 19.5393 7.48366 18.719L10.0201 16.1906L12.5338 18.6964C12.9337 19.1054 13.4112 19.4309 13.9385 19.6542C14.4658 19.8774 15.0324 19.9939 15.6053 19.9969H15.6328C16.4943 19.9996 17.3373 19.7474 18.0551 19.2723C18.7728 18.7971 19.3329 18.1204 19.6646 17.3277C19.9962 16.535 20.0844 15.6621 19.9181 14.8194C19.7517 13.9767 19.3383 13.2021 18.7301 12.5938L18.7414 12.5954ZM17.5452 17.5281C17.2961 17.7776 16.9998 17.9753 16.6734 18.1097C16.3471 18.2442 15.9972 18.3127 15.6441 18.3113H15.6279C14.9294 18.3093 14.2602 18.0311 13.7673 17.5378L11.0078 14.787C10.6798 14.8637 10.344 14.9026 10.0071 14.903C9.68072 14.9028 9.35537 14.866 9.03718 14.7935L6.28902 17.533C6.04266 17.783 5.7493 17.9822 5.42571 18.1192C5.10211 18.2562 4.75461 18.3284 4.40305 18.3315C4.05149 18.3347 3.70275 18.2687 3.37674 18.1375C3.05073 18.0063 2.75384 17.8124 2.50302 17.5668C2.2522 17.3212 2.05236 17.0288 1.91491 16.7062C1.77746 16.3836 1.70509 16.0372 1.70194 15.6868C1.69879 15.3363 1.76491 14.9887 1.89654 14.6637C2.02816 14.3387 2.22271 14.0428 2.46907 13.7927L4.76783 11.5012L6.63496 9.63676L8.45037 7.82708C8.86396 7.41624 9.42405 7.18555 10.0079 7.18555C10.5918 7.18555 11.1519 7.41624 11.5655 7.82708L13.3631 9.61903L15.2448 11.4964L17.5436 13.7879C18.0406 14.2841 18.3199 14.9565 18.3202 15.6577C18.3205 16.3589 18.0418 17.0316 17.5452 17.5281Z"></path>
<path fill="#186181" d="M4.76944 11.4981L6.63496 9.63792L4.76944 11.4981Z"></path>
<path fill="#186181" d="M11.6237 12.1541C11.1985 12.5789 10.6219 12.8182 10.0201 12.8199H10.0087C9.70847 12.8214 9.4109 12.7633 9.13336 12.649C8.85582 12.5347 8.60387 12.3665 8.39218 12.1541L6.49756 10.2714L5.41608 11.3498L7.30584 13.2341C7.7279 13.6552 8.24432 13.9701 8.81248 14.1529C9.48251 14.3718 10.2002 14.4018 10.8862 14.2397C11.5723 14.0776 12.2001 13.7296 12.7003 13.2341L16.4427 9.50736L15.3612 8.42737L11.6237 12.1541Z"></path>
<path fill="#186181" d="M27 14.5866C27.1722 16.1602 28.7221 18.7926 32.769 18.7926C36.3279 18.7926 38.05 16.4464 38.05 14.329C38.05 12.269 36.6723 10.6667 34.0318 10.0944L31.9079 9.66524C31.0469 9.49356 30.5016 8.94993 30.5016 8.20601C30.5016 7.34764 31.3339 6.60372 32.5106 6.60372C34.3762 6.60372 34.979 7.89127 35.0938 8.69242L37.9065 7.89127C37.6769 6.51788 36.414 4 32.5106 4C29.6118 4 27.3731 6.06009 27.3731 8.49213C27.3731 10.4092 28.6647 12.0114 31.133 12.5551L33.1995 13.0129C34.3188 13.2418 34.8355 13.814 34.8355 14.5579C34.8355 15.4163 34.1179 16.1602 32.7403 16.1602C30.9608 16.1602 30.0136 15.0443 29.8988 13.7854L27 14.5866Z"></path>
<path fill="#186181" d="M44.3385 24L53.2359 4.42919H49.7057L45.9458 13.2418L41.9276 4.42919H38.1677L44.1376 16.7039L40.7796 24H44.3385Z"></path>
<path fill="#186181" d="M57.8559 10.3233C57.8559 8.49213 58.8605 7.0329 60.7548 7.0329C62.85 7.0329 63.6249 8.4063 63.6249 10.123V18.3634H66.9542V9.55079C66.9542 6.48927 65.3183 4.02861 61.9028 4.02861C60.3529 4.02861 58.6883 4.6867 57.7698 6.28898V4.42919H54.5266V18.3634H57.8559V10.3233Z"></path>
<path fill="#186181" d="M75.5135 7.06152C77.6374 7.06152 78.5846 8.43491 78.9003 9.66524L81.8852 8.57797C81.3112 6.34621 79.2447 4 75.4848 4C71.4666 4 68.3382 7.09013 68.3382 11.382C68.3382 15.6166 71.4666 18.7926 75.5709 18.7926C79.2447 18.7926 81.3399 16.4177 82 14.2432L79.0725 13.1846C78.7568 14.2432 77.7522 15.7597 75.5709 15.7597C73.4757 15.7597 71.6675 14.186 71.6675 11.382C71.6675 8.57797 73.4757 7.06152 75.5135 7.06152Z"></path>
</svg>
